<?xml version="1.0" standalone="no"?>
<!DOCTYPE svg PUBLIC "-//W3C//DTD SVG 1.1//EN" "http://www.w3.org/Graphics/SVG/1.1/DTD/svg11.dtd" >
<svg xmlns="http://www.w3.org/2000/svg">
<metadata>
<json>
<![CDATA[
{
	"fontFamily": "BD",
	"majorVersion": 1,
	"minorVersion": 0,
	"version": "Version 1.0",
	"fontId": "BD",
	"psName": "BD",
	"subFamily": "Regular",
	"fullName": "BD",
	"description": "Font generated by IcoMoon."
}
]]>
</json>
</metadata>
<defs>
<font id="BD" horiz-adv-x="1024">
<font-face units-per-em="1024" ascent="958.5294705294705" descent="-65.47052947052947" />
<missing-glyph horiz-adv-x="1024" />
<glyph unicode="&#x20;" horiz-adv-x="0" d="" />
<glyph unicode="&#xe001;" glyph-name="alarm-bold" data-tags="alarm-bold" d="M805.083 157.986l62.402-91.045-70.585-48.080-54.218 79.792q-67.516-51.149-148.843-68.539t-162.653 0-148.843 68.539l-55.241-79.792-70.585 48.080 62.402 91.045q-65.471 76.723-83.884 174.929-18.414 95.137 10.23 188.228 29.666 95.137 102.809 164.188t169.303 93.602q94.114 23.528 188.228 0 97.183-24.551 170.326-93.602t102.809-164.188q28.643-93.091 10.23-188.228-19.437-98.206-83.884-174.929zM361.111 827.013q-37.85 32.735-85.419 43.477t-95.137-2.557-82.861-48.591-48.591-82.35-2.557-95.137 43.477-85.93q34.781 95.137 105.367 166.234t165.722 104.855zM933.978 555.924q32.735 37.85 43.477 85.93t-2.557 95.137-48.591 82.35-82.861 48.591-95.137 2.557-85.419-43.477q95.137-33.758 165.722-104.855t105.367-166.234zM551.385 661.291h-84.907v-212.779h-127.872v-85.93h212.779v298.709z" />
<glyph unicode="&#xe002;" glyph-name="bullet-list-bold" data-tags="bullet-list-bold" d="M298.709 789.163h640.384v-84.907h-640.384v84.907zM298.709 490.454h640.384v-84.907h-640.384v84.907zM298.709 191.744h640.384v-84.907h-640.384v84.907zM170.837 832.128v0q34.781 0 59.844-25.063t25.063-60.867v0q0-34.781-25.063-59.844t-59.844-25.063v0q-35.804 0-60.867 25.063t-25.063 59.844v0q0 35.804 25.063 60.867t60.867 25.063zM170.837 533.419v0q34.781 0 59.844-25.063t25.063-60.867v1.023q0-35.804-25.063-60.867t-59.844-25.063v0q-35.804 0-60.867 25.063t-25.063 60.867v0q0 34.781 25.063 59.844t60.867 25.063zM170.837 234.709v0q34.781 0 59.844-25.063t25.063-59.844v0q0-35.804-25.063-60.867t-59.844-25.063v0q-35.804 0-60.867 25.063t-25.063 60.867v0q0 34.781 25.063 59.844t60.867 25.063z" />
<glyph unicode="&#xe003;" glyph-name="check-bold" data-tags="check-bold" d="M368.272-24.104l-291.548 292.571 60.356 60.356 219.94-219.94 525.81 768.256 69.562-48.080z" />
<glyph unicode="&#xe004;" glyph-name="checklist-bold" data-tags="checklist-bold" d="M298.709 789.163h640.384v-84.907h-640.384v84.907zM298.709 490.454h640.384v-84.907h-640.384v84.907zM298.709 191.744h640.384v-84.907h-640.384v84.907zM84.907 832.128h170.837v-170.837h-170.837v170.837zM84.907 533.419h170.837v-170.837h-170.837v170.837zM84.907 234.709h170.837v-170.837h-170.837v170.837z" />
<glyph unicode="&#xe005;" glyph-name="clock-bold" data-tags="clock-bold" d="M939.093 448.511q0-116.619-58.31-215.848-57.287-96.16-153.447-153.447-99.229-58.31-215.337-58.31t-215.337 58.31q-96.16 57.287-153.447 153.447-58.31 99.229-58.31 215.337t58.31 215.337q57.287 96.16 153.447 153.447 99.229 58.31 215.337 58.31t215.337-58.31q96.16-57.287 153.447-153.447 58.31-99.229 58.31-214.825zM699.716 362.581l-145.263 145.263v238.354h-84.907v-273.135l170.837-170.837z" />
<glyph unicode="&#xe006;" glyph-name="close-bold" data-tags="close-bold" d="M905.335 822.921l-61.379 60.356-352.927-353.95-353.95 353.95-60.356-60.356 353.95-353.95-353.95-352.927 60.356-61.379 353.95 354.973 352.927-354.973 61.379 61.379-354.973 352.927z" />
<glyph unicode="&#xe007;" glyph-name="complete-bold" data-tags="complete-bold" d="M496.144 190.721l-206.641 205.618 60.356 60.356 135.033-135.033 397.938 556.5 69.562-49.103zM469.546 20.907q-104.344 0-194.366 53.195-86.953 50.126-137.079 137.079-53.195 90.022-53.195 194.366t53.195 193.343q50.126 86.953 137.079 138.102 90.022 52.172 194.366 52.172 92.068 0 174.929-42.965l-38.873-75.7q-64.448 33.758-136.056 33.758-62.402 0-119.177-24.040t-99.74-68.028-65.471-102.298-19.437-119.688 29.155-117.131 73.143-96.671 105.878-59.844 120.2-13.81 116.108 34.781 93.091 78.258 54.218 107.924 7.672 121.734l84.907 11.253q12.276-82.861-11.764-162.653t-78.769-142.194-130.941-96.671-159.073-34.27z" />
<glyph unicode="&#xe008;" glyph-name="confirm-bold" data-tags="confirm-bold" d="M454.202 188.675l-164.699 164.699 60.356 61.379 92.068-92.068 227.101 340.651 70.585-47.057zM512.511 20.907q-116.619 0-215.848 58.31-96.16 57.287-153.447 153.447-58.31 99.229-58.31 215.337t58.31 215.337q57.287 96.16 153.447 153.447 99.229 58.31 215.337 58.31t215.337-58.31q96.16-57.287 153.447-153.447 58.31-99.229 58.31-215.337t-58.31-215.337q-57.287-96.16-153.447-153.447-99.229-58.31-214.825-58.31zM512.511 789.163q-93.091 0-172.883-46.034-76.723-46.034-122.757-122.757-46.034-79.792-46.034-172.372t46.034-172.372q46.034-76.723 122.757-122.757 79.792-46.034 172.372-46.034t172.372 46.034q76.723 46.034 122.757 122.757 46.034 79.792 46.034 171.86 0 68.539-26.086 131.453t-73.654 110.482-110.482 73.654-131.453 26.086h1.023z" />
<glyph unicode="&#xe009;" glyph-name="create-new-bold" data-tags="create-new-bold" d="M853.163 20.907h-768.256v768.256h469.546v-84.907h-383.616v-597.419h597.419v383.616h84.907v-469.546zM532.971 384.064l-169.814-84.907 84.907 169.814 383.616 384.639 85.93-85.93z" />
<glyph unicode="&#xe00a;" glyph-name="dashboard-bold" data-tags="dashboard-bold" d="M896.128 341.099v-191.297h-811.221v191.297q0 110.482 56.264 204.595 53.195 92.068 145.263 145.263 94.114 55.241 204.084 55.241t205.107-55.241q91.045-53.195 145.263-145.263 55.241-94.114 55.241-204.595zM213.802 319.616h84.907v42.965h-84.907v-42.965zM682.326 362.581v-42.965h85.93v42.965h-85.93zM279.273 522.166l62.402-60.356 28.643 28.643-60.356 62.402zM512.511 618.326h-42.965v-84.907h42.965v84.907zM734.498 524.212l-60.356 60.356-161.63-160.607q-11.253 3.069-22.505 3.069-34.781 0-59.844-25.063t-25.063-60.356 25.063-60.356 60.356-25.063 60.356 25.063 25.063 59.844q0 11.253-3.069 22.505z" />
<glyph unicode="&#xe00b;" glyph-name="delete-bold" data-tags="delete-bold" d="M853.163 789.163h-212.779v21.483q0 26.597-18.925 45.522t-45.522 18.925h-170.837q-26.597 0-45.011-18.925t-18.414-45.522v-21.483h-213.802v-84.907h85.93v-533.994q0-26.597 18.414-45.011t45.011-18.414h426.581q26.597 0 45.522 18.414t18.925 45.011v533.994h84.907v84.907zM383.616 810.645q0 9.207 6.649 15.345t14.833 6.138h170.837q9.207 0 15.345-6.138t6.138-15.345v-21.483h-213.802v21.483zM383.616 234.709h-41.942v383.616h41.942v-383.616zM512.511 234.709h-42.965v383.616h42.965v-383.616zM640.384 234.709h-42.965v383.616h42.965v-383.616z" />
<glyph unicode="&#xe00c;" glyph-name="download-bold" data-tags="download-bold" d="M699.716 427.029l-59.333 59.333-85.93-84.907v473.638h-84.907v-473.638l-85.93 84.907-59.333-59.333 188.228-188.228zM853.163 319.616v-169.814q0-18.414-12.276-30.689t-30.689-12.276h-596.396q-18.414 0-30.689 12.276t-12.276 30.689v169.814h-85.93v-169.814q0-25.574 9.718-49.103t28.132-41.942 41.942-28.132 49.103-9.718h596.396q34.781 0 64.448 17.391t47.057 47.057 17.391 64.448v169.814h-85.93z" />
<glyph unicode="&#xe00d;" glyph-name="edit-bold" data-tags="edit-bold" d="M165.722 270.513l170.837-170.837 394.869 396.915-170.837 170.837zM591.281 697.095l170.837-169.814 55.241 54.218-170.837 170.837zM892.036 777.91l-50.126 50.126q-24.551 25.574-59.844 25.574t-60.867-25.574l-45.011-45.011 170.837-170.837 46.034 45.011q24.551 25.574 24.551 60.867t-25.574 59.844zM62.402-3.644l237.331 78.769-158.561 158.561z" />
<glyph unicode="&#xe00e;" glyph-name="export-bold" data-tags="export-bold" d="M469.546 793.255v-473.638h84.907v473.638l85.93-84.907 59.333 59.333-187.205 188.228-188.228-188.228 59.333-59.333zM725.291 661.291h-127.872v-84.907h127.872q17.391 0 30.178-12.787t12.787-30.178v-426.581q0-17.391-12.787-30.178t-30.178-12.787h-426.581q-17.391 0-30.178 12.787t-12.787 30.178v426.581q0 17.391 12.787 30.178t30.178 12.787h127.872v84.907h-127.872q-25.574 0-49.103-9.718t-41.431-27.62-27.62-41.431-9.718-49.103v-426.581q0-25.574 9.718-49.103t27.62-41.431 41.431-27.62 49.103-9.718h426.581q34.781 0 64.448 16.879t46.545 46.545 16.879 64.448v426.581q0 34.781-16.879 63.936t-46.545 46.545-64.448 17.391z" />
<glyph unicode="&#xe00f;" glyph-name="favorite-bold" data-tags="favorite-bold" d="M958.529 568.2l-326.33 47.057-141.171 330.422-142.194-330.422-326.33-47.057 233.239-233.239-95.137-381.57 330.422 236.308 329.399-236.308-95.137 381.57z" />
<glyph unicode="&#xe010;" glyph-name="filter-bold" data-tags="filter-bold" d="M63.425 875.093l320.192-413.283v-486.937l213.802 186.182v300.755l321.215 413.283h-855.209z" />
<glyph unicode="&#xe011;" glyph-name="flag-bold" data-tags="flag-bold" d="M908.404 789.163q-88.999-42.965-176.975-66.494-107.413-28.643-141.171-7.161-8.184 5.115-11.764 13.81t-2.557 16.879q0 17.391-7.672 33.247t-20.971 26.086q-51.149 37.85-192.32 19.437-74.677-10.23-164.699-34.781l-19.437-6.138v91.045h-85.93v-854.186h85.93v206.641l27.62 7.161q90.022 26.597 179.021 36.827 110.482 12.276 144.24-13.299 12.276-9.207 11.253-24.551-1.023-19.437 8.184-37.339t25.574-29.155q31.712-17.391 68.539-15.345 48.080 0 118.665 19.437 52.172 14.322 111.504 37.85 39.896 17.391 60.356 27.62l13.299 6.138v558.545z" />
<glyph unicode="&#xe012;" glyph-name="hand-approve-bold" data-tags="hand-approve-bold" d="M305.87 149.802q11.253 0 20.46-4.092l176.975-58.31q66.494-22.505 137.079-23.528h191.297q9.207 0 15.345 6.138t6.138 15.345v42.965q0 8.184-5.626 14.322t-14.833 7.161h-84.907q-9.207 0-15.345 6.138t-6.138 14.833 6.138 14.833 15.345 6.138h127.872q8.184 0 14.833 6.138t6.649 15.345v42.965q0 8.184-6.138 14.322t-14.322 7.161h-85.93q-8.184 0-14.833 6.138t-6.649 14.833 6.649 14.833 14.833 6.138h127.872q9.207 0 15.345 6.649t6.138 14.833v42.965q0 8.184-5.626 14.322t-14.833 7.161h-127.872q-9.207 0-15.345 6.138t-6.138 14.833 6.138 14.833 15.345 6.138h127.872q9.207 0 15.345 6.649t6.138 14.833v42.965q0 9.207-6.138 15.345t-15.345 6.138h-279.273q-12.276 0-18.414 9.718t-2.046 19.948l54.218 124.803q6.138 25.574 8.184 51.149 3.069 47.057-16.368 70.585-8.184 11.253-20.971 16.879t-26.086 5.626h-13.299l-81.838-164.699q-7.161-13.299-19.437-22.505l-131.964-99.229q-17.391-12.276-37.85-12.276h-249.606v-383.616h220.963z" />
<glyph unicode="&#xe013;" glyph-name="hand-bold" data-tags="hand-bold" d="M768.256 20.907l62.402 205.618q22.505 68.539 22.505 142.194v249.606q0 18.414-12.276 30.689t-30.178 12.276-30.178-12.276-12.276-30.689v-149.355q0-8.184-6.138-14.322t-15.345-6.138-15.345 6.138-6.138 14.322v277.227q0 18.414-12.276 30.689t-30.178 12.276-30.178-12.276-12.276-30.689v-277.227q0-8.184-6.649-14.322t-15.345-6.138-14.833 6.138-6.138 14.322v363.157q0 17.391-12.787 30.178t-30.178 12.787-29.666-12.787-12.276-30.178v-363.157q-1.023-8.184-7.161-14.322t-14.833-6.138-14.833 6.138-6.138 14.322v277.227q0 18.414-12.787 30.689t-30.178 12.276-30.178-12.276-12.787-30.689v-391.8l-109.459 106.39q-15.345 14.322-36.316 15.856t-37.339-11.253-20.46-33.247 6.138-38.873l197.435-372.364h384.639z" />
<glyph unicode="&#xe014;" glyph-name="hand-deny-bold" data-tags="hand-deny-bold" d="M718.13 746.198q-10.23 0-20.46 4.092l-176.975 58.31q-66.494 22.505-137.079 23.528h-191.297q-9.207 0-15.345-6.138t-6.138-15.345v-42.965q0-8.184 5.626-14.322t14.833-7.161h84.907q9.207 0 15.345-6.138t6.138-14.833-6.138-14.833-15.345-6.138h-127.872q-8.184 0-14.833-6.138t-6.649-15.345v-42.965q0-8.184 6.138-14.322t14.322-7.161h85.93q8.184 0 14.833-6.138t6.649-14.833-6.649-14.833-14.833-6.138h-127.872q-9.207 0-15.345-6.649t-6.138-14.833v-42.965q0-8.184 5.626-14.322t14.833-7.161h127.872q9.207 0 15.345-6.138t6.138-14.833-6.138-14.833-15.345-7.161h-127.872q-9.207 0-15.345-6.138t-6.138-14.322v-42.965q0-9.207 6.138-15.345t15.345-6.138h279.273q12.276 0 18.414-9.718t2.046-19.948l-54.218-124.803q-6.138-25.574-8.184-51.149-3.069-47.057 16.368-70.585 8.184-11.253 20.971-16.879t26.086-5.626h13.299l82.861 164.699q6.138 13.299 18.414 22.505l131.964 99.229q17.391 12.276 37.85 12.276h249.606v383.616h-220.963z" />
<glyph unicode="&#xe015;" glyph-name="hand-grab-bold" data-tags="hand-grab-bold" d="M810.198 597.866v85.93q0 8.184-6.138 14.833t-14.322 6.649h-42.965q-9.207 0-15.345-6.649t-6.138-14.833v-127.872q0-9.207-6.138-15.345t-14.833-6.138-15.345 6.138-6.649 15.345v169.814q0 9.207-6.138 15.345t-15.345 6.138h-41.942q-9.207 0-15.345-6.138t-6.138-15.345v-127.872q0-8.184-6.138-14.833t-15.345-6.649-15.345 6.649-6.138 14.833v170.837q0 9.207-6.138 15.345t-15.345 6.138h-41.942q-9.207 0-15.345-6.138t-6.138-15.345v-170.837q0-8.184-6.138-14.833t-15.345-6.649-15.345 6.649-6.138 14.833v127.872q0 9.207-6.138 14.833t-15.345 5.626h-41.942q-9.207 0-15.345-6.138t-6.138-14.322v-256.767q0-8.184-6.649-14.322t-15.345-6.138-14.833 6.138-6.138 14.322v149.355h-21.483q-43.988 0-75.189-31.201t-31.201-75.189v-127.872q0-75.7 37.339-139.125t100.763-100.763 139.125-37.339h127.872q63.425 0 117.642 31.712t85.419 85.419 31.201 117.131v256.767z" />
<glyph unicode="&#xe016;" glyph-name="hand-pointer-bold" data-tags="hand-pointer-bold" d="M640.384 20.907l197.435 372.364q10.23 18.414 6.138 38.873t-20.46 33.247-37.339 11.253-36.316-15.856l-109.459-107.413v478.753q0 11.253-6.138 20.971t-15.856 15.856-20.971 6.138-21.483-6.138-15.856-15.856-5.626-20.971v-363.157q0-8.184-6.138-14.322t-14.833-6.649-15.345 6.138-6.649 14.833v170.837q0 9.207-6.138 15.345t-14.322 6.138h-42.965q-9.207 0-15.345-6.138t-6.138-15.345v-170.837q0-8.184-6.138-14.322t-14.833-6.649-15.345 6.138-6.649 14.833v127.872q0 9.207-6.138 15.345t-14.322 6.138h-42.965q-9.207 0-15.345-6.138t-6.138-15.345v-127.872q0-8.184-6.138-14.322t-15.345-6.649-15.345 6.138-6.138 14.833v85.93q0 8.184-6.138 14.833t-15.345 6.649h-41.942q-9.207 0-15.345-6.649t-6.138-14.833v-190.274q1.023-70.585 22.505-137.079l62.402-206.641h384.639z" />
<glyph unicode="&#xe017;" glyph-name="hide-bold" data-tags="hide-bold" d="M977.966 438.282q-87.976 122.757-217.894 197.435l217.894 217.894-60.356 60.356-240.4-239.377q-79.792 29.666-165.722 29.666-172.883 0-327.353-121.734-78.769-62.402-136.056-142.194l-9.207-13.299 7.161-12.276q77.746-108.436 190.274-180.044l-190.274-192.32 60.356-60.356 209.71 209.71q93.091-41.942 195.389-41.942 173.906 0 328.376 120.711 78.769 62.402 136.056 142.194l9.207 14.322zM363.157 427.029q0 39.896 19.948 74.166t54.218 54.729 74.166 20.46q29.666 0 57.287-11.253l-78.769-78.769q-13.299-4.092-23.528-14.322t-14.322-23.528l-78.769-77.746q-10.23 26.597-10.23 56.264zM512.511 277.674q-47.057-1.023-85.93 25.574l63.425 63.425q10.23-4.092 22.505-4.092 25.574 0 44.5 18.925t18.925 45.522q0 10.23-4.092 21.483l63.425 62.402q23.528-33.758 26.086-75.189t-16.879-78.258-55.241-58.31-76.723-21.483z" />
<glyph unicode="&#xe018;" glyph-name="lock-bold" data-tags="lock-bold" d="M810.198 533.419h-41.942v84.907q0 69.562-34.781 128.384t-93.602 93.602-127.872 34.781-127.872-34.781-93.602-93.602-34.781-128.384v-84.907h-41.942q-18.414 0-30.689-12.787t-12.276-30.178v-426.581q0-17.391 12.276-30.178t30.689-12.787h596.396q18.414 0 30.689 12.787t12.276 30.178v426.581q0 17.391-12.276 30.178t-30.689 12.787zM341.674 618.326q0 47.057 23.017 85.93t61.89 61.89 85.419 23.017 85.419-23.017 61.89-61.89 23.017-85.93v-84.907h-340.651v84.907zM554.454 272.559v-102.298h-84.907v102.298q-15.345 13.299-19.948 32.735t2.557 37.85 23.528 29.666 36.316 11.253 36.316-11.253 23.528-29.666 2.557-37.85-19.948-32.735z" />
<glyph unicode="&#xe019;" glyph-name="logout-bold" data-tags="logout-bold" d="M789.738 635.716l-60.356-59.333 84.907-85.93h-430.673v-84.907h430.673l-84.907-85.93 60.356-59.333 188.228 188.228zM597.419 191.744q0-17.391-12.787-29.666t-30.178-12.276h-298.709q-17.391 0-29.666 12.276t-12.276 29.666v512.511q0 17.391 12.276 29.666t29.666 12.276h298.709q17.391 0 30.178-12.276t12.787-29.666v-170.837h84.907v170.837q0 34.781-16.879 63.936t-46.545 46.545-64.448 17.391h-298.709q-34.781 0-63.936-17.391t-46.545-46.545-17.391-63.936v-512.511q0-34.781 17.391-63.936t46.545-46.545 63.936-17.391h298.709q34.781 0 64.448 17.391t46.545 46.545 16.879 63.936v170.837h-84.907v-170.837z" />
<glyph unicode="&#xe01a;" glyph-name="minus-bold" data-tags="minus-bold" d="M84.907 490.454h854.186v-84.907h-854.186v84.907z" />
<glyph unicode="&#xe01b;" glyph-name="numbered-list-bold" data-tags="numbered-list-bold" d="M341.674 785.071h639.361v-84.907h-639.361v84.907zM341.674 486.362h639.361v-84.907h-639.361v84.907zM341.674 187.652h639.361v-84.907h-639.361v84.907zM213.802 635.716h-85.93v105.367l-51.149 52.172 137.079 132.987v-290.525zM258.813 316.547h-215.848l51.149 67.516q22.505 30.689 48.080 58.31h-57.287v42.965q0 34.781 25.063 59.844t60.356 25.063 60.356-25.063 25.063-59.844q2.046-24.551-7.672-47.057t-27.109-38.873h37.85v-82.861zM167.768 39.321h-82.861v84.907h5.115l42.965 63.425h-48.080v85.93h203.572l-57.287-88.999q23.528-26.597 21.483-61.379 2.046-17.391-4.092-33.758t-18.414-28.132-28.643-17.902-33.758-4.092z" />
<glyph unicode="&#xe01c;" glyph-name="password-bold" data-tags="password-bold" d="M939.093 875.093v-158.561l-42.965-42.965v-55.241h-55.241l-30.689-29.666v-55.241h-54.218l-30.689-30.689v-54.218h-55.241l-49.103-49.103q19.437-49.103 19.437-100.252 0-75.7-37.339-139.636t-101.275-101.275-139.125-37.339-139.125 37.339-101.275 101.275-37.339 139.125 37.339 139.125 101.275 101.275 139.636 37.339q51.149 0 100.252-19.437l317.123 318.146h158.561zM277.227 277.674q-26.597 0-45.011-18.925t-18.414-45.522 18.414-45.011 45.011-18.414 45.522 18.414 18.925 45.011-18.925 45.522-45.522 18.925z" />
<glyph unicode="&#xe01d;" glyph-name="password-management-bold" data-tags="password-management-bold" d="M665.958 452.603q16.368 38.873 16.368 80.815 0 56.264-28.132 105.878t-76.212 78.258q23.528-59.333 17.902-121.223t-38.873-114.573-87.465-84.396v-77.746q41.942 0 80.815 16.368l47.057-47.057v-97.183h84.907v-84.907h98.206l42.965-42.965h115.596v115.596zM426.581 875.093q-20.46 0-37.85-12.787t-23.528-33.247q35.804-3.069 68.028-18.414t57.798-39.896v39.896q0 26.597-18.925 45.522t-45.522 18.925zM532.971 710.394v100.252q3.069 28.643-9.207 54.729t-35.293 42.454-52.172 18.925-54.729-9.718-42.454-35.293-18.925-51.66q-71.608-8.184-123.269-58.31t-62.913-120.711 23.017-134.010 98.717-93.091v-30.689l-51.149-52.172 51.149-51.149v-25.574l-51.149-51.149 51.149-51.149v-64.448l85.93-84.907 84.907 84.907v326.33q58.31 25.574 93.091 78.258t34.781 116.108q0 48.080-21.483 92.068zM341.674 639.808q-26.597 0-45.522 18.925t-18.925 45.522 18.925 45.011 45.522 18.414 45.011-18.414 18.414-45.011-18.414-45.522-45.011-18.925zM491.029 770.749q-25.574 24.551-57.798 39.896t-68.028 18.414q7.161 22.505 27.62 35.293t43.477 9.207 38.362-21.483 16.368-41.431v-39.896z" />
<glyph unicode="&#xe01e;" glyph-name="plus-bold" data-tags="plus-bold" d="M939.093 490.454h-384.639v384.639h-84.907v-384.639h-384.639v-84.907h384.639v-384.639h84.907v384.639h384.639v84.907z" />
<glyph unicode="&#xe01f;" glyph-name="preferences-bold" data-tags="preferences-bold" d="M759.049 789.163q-12.276 29.666-38.873 47.057t-58.821 17.391-58.821-17.391-38.873-47.057h-435.788v-84.907h435.788q12.276-29.666 38.873-47.057t58.821-17.391 58.821 17.391 38.873 47.057h137.079v84.907h-137.079zM363.157 596.843q-32.735 0-59.333-17.391t-38.873-46.034h-137.079v-84.907h137.079q12.276-29.666 38.873-47.057t58.821-17.391 58.821 17.391 38.873 47.057h435.788v84.907h-435.788q-12.276 28.643-38.873 46.034t-58.31 17.391zM532.971 341.099q-31.712 0-58.31-17.391t-38.873-46.034h-307.916v-85.93h306.893q12.276-28.643 38.873-46.034t58.821-17.391 58.821 17.391 38.873 46.034h265.974v85.93h-264.951q-13.299 28.643-39.896 46.034t-58.31 17.391z" />
<glyph unicode="&#xe020;" glyph-name="repair-bold" data-tags="repair-bold" d="M255.744 490.454q42.965 0 80.815 16.368l54.218-53.195 114.573 115.596-52.172 54.218q16.368 37.85 16.368 80.815 0 53.195-25.063 99.74t-69.051 76.723-96.671 35.804-101.786-14.833l-30.689-11.253 109.459-110.482v-75.7h-75.7l-109.459 109.459-12.276-30.689q-19.437-49.103-13.81-101.786t35.293-96.671 76.212-69.051 99.74-25.063zM768.256 405.546q-42.965 0-80.815-16.368l-54.218 53.195-114.573-115.596 53.195-53.195q-16.368-38.873-17.391-81.838 0-53.195 25.063-99.74t69.051-76.723 96.671-35.804 101.786 14.833l30.689 11.253-109.459 110.482v75.7h75.7l109.459-109.459 12.276 30.689q19.437 49.103 13.81 101.786t-35.293 96.671-76.212 69.051-99.74 25.063zM435.788 311.433l369.295 368.272 30.689-30.689 109.459 164.699-67.516 66.494-164.699-108.436 30.689-30.689-368.272-369.295-27.62 27.62-238.354-238.354q-24.551-24.551-24.551-58.31t24.040-57.798 57.798-24.040 58.31 24.551l238.354 238.354-15.345 15.345z" />
<glyph unicode="&#xe021;" glyph-name="search-bold" data-tags="search-bold" d="M768.256 533.419q0 78.769-33.758 148.332t-93.602 118.154-136.567 66.494-151.912 0.511-136.567-64.959-95.648-117.642-34.781-147.309 32.224-147.82 93.602-120.2 136.056-67.005 150.889-1.534 137.079 63.936l282.342-282.342 60.356 60.356-282.342 282.342q34.781 43.988 53.706 97.694t18.925 110.993zM170.837 533.419q0 69.562 34.27 128.384t93.091 93.091 128.384 34.27 128.384-34.27 93.091-93.091 34.27-128.384-34.27-128.384-93.091-93.091-128.384-34.27-128.384 34.27-93.091 93.091-34.27 128.384z" />
<glyph unicode="&#xe022;" glyph-name="settings-bold" data-tags="settings-bold" d="M840.887 356.444l120.711-69.562-85.93-147.309-120.711 69.562q-65.471-68.539-157.538-92.068v-138.102h-170.837v138.102q-92.068 23.528-157.538 92.068l-120.711-69.562-85.93 147.309 120.711 69.562q-25.574 92.068 0 183.113l-120.711 69.562 85.93 147.309 120.711-69.562q65.471 68.539 157.538 92.068v138.102h170.837v-138.102q92.068-23.528 157.538-92.068l120.711 69.562 84.907-147.309-119.688-69.562q25.574-91.045 0-183.113zM512.511 618.326q-47.057 0-85.93-23.017t-61.89-61.89-23.017-85.419 23.017-85.419 61.89-61.89 85.419-23.017 85.419 23.017 61.89 61.89 23.017 85.419-23.017 85.419-61.89 61.89-85.93 23.017h1.023z" />
<glyph unicode="&#xe023;" glyph-name="sort-bold" data-tags="sort-bold" d="M840.887 713.463l-200.503 200.503-201.526-200.503 60.356-61.379 98.206 98.206v-387.708h84.907v387.708l98.206-98.206zM383.616 145.71v387.708h-84.907v-387.708l-98.206 98.206-60.356-61.379 201.526-200.503 200.503 200.503-60.356 61.379z" />
<glyph unicode="&#xe024;" glyph-name="tag-bold" data-tags="tag-bold" d="M1000.472 373.834l-322.238-92.068-92.068-322.238-501.259 501.259v414.306h414.306zM298.709 746.198q-25.574 0-47.057-14.322t-31.712-37.85-5.115-49.103 23.528-43.988 43.988-23.528 49.103 5.115 37.85 31.712 14.322 47.057q0 35.804-24.551 60.356t-60.356 24.551z" />
<glyph unicode="&#xe025;" glyph-name="timer-bold" data-tags="timer-bold" d="M831.68 665.383l-56.264-57.287q50.126-63.425 68.028-140.659t2.557-155.493-63.425-143.217-117.642-102.809-148.843-43.988-154.47 22.505-130.941 85.93-82.35 131.964-18.925 154.981 47.568 148.843 105.367 114.573 144.24 60.356v48.080h-84.907v85.93h298.709v-85.93h-85.93v-48.080q88.999-16.368 160.607-72.631l57.287 57.287-21.483 20.46 59.333 60.356 103.321-102.298-60.356-60.356zM550.362 384.064l-187.205 188.228-60.356-60.356 188.228-188.228z" />
<glyph unicode="&#xe026;" glyph-name="tools-bold" data-tags="tools-bold" d="M831.68 704.256h-106.39v21.483q0 20.46-8.184 40.408t-23.017 34.781-34.27 23.017-40.919 8.184h-213.802q-43.988 0-75.189-31.201t-31.201-75.189v-21.483h-106.39q-21.483 0-40.919-8.184t-34.781-23.017-23.528-34.781-8.184-41.431v-106.39h341.674v21.483q0 26.597 18.925 45.522t45.522 18.925h41.942q26.597 0 45.522-18.925t18.925-45.522v-21.483h341.674v106.39q0 21.483-8.184 41.431t-23.528 34.781-34.781 23.017-40.919 8.184zM682.326 704.256h-340.651v21.483q0 26.597 18.414 45.011t45.011 18.414h213.802q26.597 0 45.011-18.414t18.414-45.011v-21.483zM597.419 427.029q0-26.597-18.925-45.522t-45.522-18.925h-41.942q-26.597 0-45.522 18.925t-18.925 45.522v21.483h-341.674v-235.285q0-43.988 31.201-75.189t76.212-31.201h639.361q45.011 0 76.212 31.201t31.201 75.189v235.285h-341.674v-21.483zM491.029 533.419h41.942q9.207 0 15.345-6.138t6.138-15.345v-84.907q0-9.207-6.138-15.345t-15.345-6.138h-41.942q-9.207 0-15.345 6.138t-6.138 15.345v84.907q0 9.207 6.138 15.345t15.345 6.138z" />
<glyph unicode="&#xe027;" glyph-name="upload-bold" data-tags="upload-bold" d="M640.384 366.673l59.333 60.356-187.205 188.228-188.228-188.228 59.333-60.356 85.93 84.907v-472.615h84.907v472.615zM725.291 875.093h-426.581q-25.574 0-49.103-9.718t-41.431-28.132-27.62-41.942-9.718-49.103v-426.581q0-25.574 9.718-49.103t27.62-41.431 41.431-27.62 49.103-9.718h127.872v85.93h-127.872q-17.391 0-30.178 12.276t-12.787 29.666v426.581q0 18.414 12.787 30.689t30.178 12.276h426.581q17.391 0 30.178-12.276t12.787-30.689v-426.581q0-17.391-12.787-29.666t-30.178-12.276h-127.872v-85.93h127.872q34.781 0 64.448 17.391t46.545 46.545 16.879 63.936v426.581q0 25.574-9.718 49.103t-27.62 41.942-41.431 28.132-49.103 9.718z" />
<glyph unicode="&#xe028;" glyph-name="user-group-bold" data-tags="user-group-bold" d="M666.981 353.375l-76.723 27.62h-2.046q-32.735-28.643-76.212-28.643t-76.212 28.643l-3.069 2.046-77.746-27.62q-37.85-13.299-66.494-42.965t-39.896-69.562l-27.62-93.091h582.074l-29.666 94.114q-12.276 37.85-40.408 67.005t-65.982 42.454zM275.181 355.421v0l-4.092-3.069q-24.551-21.483-57.287-21.483t-57.287 21.483l-3.069 3.069-27.62-11.253q-21.483-9.207-36.827-26.086t-22.505-38.362l-15.345-45.011h150.378l6.138 19.437q18.414 60.356 67.516 101.275zM185.159 385.087q12.276-11.253 28.643-11.253t27.62 11.253l21.483 19.437q17.391 14.322 26.597 35.293t9.207 44.5v49.103q0 34.781-25.063 59.844t-60.356 25.063-60.356-25.063-25.063-59.844v-49.103q0-22.505 9.207-43.477t26.597-35.293zM782.577 385.087q11.253-11.253 27.62-11.253t28.643 11.253l21.483 19.437q17.391 14.322 26.597 35.293t9.207 44.5v49.103q0 34.781-25.063 59.844t-60.356 25.063-60.356-25.063-25.063-59.844v-49.103q0-22.505 9.207-43.477t26.597-35.293zM463.409 410.661q18.414-14.322 42.965-16.368h9.207q8.184 0 15.345 2.046 16.368 4.092 28.643 14.322l26.597 23.528q25.574 21.483 39.385 51.149t14.833 62.402v70.585q0 34.781-17.391 64.448t-47.057 46.545-63.936 16.879-63.936-16.879-47.057-46.545-17.391-64.448v-70.585q0-32.735 13.81-62.402t38.362-51.149zM957.506 279.72q-7.161 21.483-22.505 38.362t-36.827 26.086l-27.62 12.276-3.069-3.069q-24.551-22.505-57.287-22.505t-57.287 22.505l-3.069 3.069h-3.069q47.057-39.896 66.494-99.229l6.138-21.483h152.424z" />
<glyph unicode="&#xe029;" glyph-name="user-people-bold" data-tags="user-people-bold" d="M739.612 385.087q12.276-11.253 28.643-11.253t28.643 11.253l21.483 19.437q16.368 14.322 25.574 35.293t9.207 44.5v49.103q0 34.781-25.063 59.844t-60.356 25.063-60.356-25.063-25.063-59.844v-49.103q1.023-22.505 10.23-43.477t25.574-35.293zM335.536 410.661q18.414-14.322 42.965-16.368h9.207q8.184 0 15.345 2.046 15.345 4.092 28.643 14.322l26.597 23.528q25.574 21.483 39.385 51.149t14.833 62.402v70.585q0 34.781-17.391 64.448t-47.057 46.545-64.448 16.879-63.936-16.879-46.545-46.545-17.391-64.448v-70.585q0-32.735 13.81-62.402t38.362-51.149zM539.109 353.375l-76.723 27.62h-2.046q-32.735-28.643-76.212-28.643t-76.212 28.643l-3.069 2.046-77.746-27.62q-38.873-13.299-67.005-42.965t-39.385-69.562l-27.62-93.091h582.074l-29.666 94.114q-12.276 37.85-40.408 67.005t-65.982 42.454zM915.564 279.72q-7.161 21.483-23.017 38.362t-36.316 26.086l-27.62 12.276-4.092-3.069q-24.551-22.505-57.287-22.505t-57.287 22.505l-3.069 3.069-27.62-12.276q-17.391-7.161-30.689-20.46 24.551-30.689 35.804-67.516l7.161-21.483h238.354z" />
<glyph unicode="&#xe02a;" glyph-name="user-profile-bold" data-tags="user-profile-bold" d="M420.444 408.615l20.46-18.414q30.689-27.62 71.097-27.62t71.097 27.62l20.46 18.414q37.85 33.758 58.31 79.281t20.46 96.671v76.723q0 46.034-23.017 85.419t-61.89 62.402-85.419 23.017-85.419-23.017-61.89-62.402-23.017-85.419v-76.723q0-51.149 20.46-96.671t58.31-79.281zM849.071 179.469q-15.345 49.103-51.149 86.953t-83.884 56.264l-98.206 39.896-4.092-4.092q-28.643-24.551-63.936-33.247t-71.097 0-63.425 33.247l-5.115 4.092-98.206-38.873q-48.080-19.437-83.884-57.287t-51.149-86.953l-38.873-115.596h751.888z" />
<glyph unicode="&#xe02b;" glyph-name="view-bold" data-tags="view-bold" d="M985.127 427.029l-7.161-12.276-2.046-2.046q-57.287-79.792-136.056-142.194-154.47-120.711-327.864-120.711t-327.864 120.711q-78.769 62.402-136.056 142.194l-9.207 14.322 9.207 13.299q57.287 79.792 136.056 142.194 154.47 121.734 327.864 121.734t327.864-121.734q78.769-62.402 136.056-142.194l2.046-2.046zM660.843 427.029q0 39.896-19.948 74.166t-54.218 54.729-74.677 20.46-74.677-20.46-54.218-54.729-19.948-74.677 19.948-74.677 54.218-54.218 74.166-19.948q30.689 0 57.798 11.253t48.080 32.224 32.224 48.591 11.253 57.287zM575.936 427.029q0-26.597-18.925-45.522t-45.011-18.925-45.011 18.925-18.925 45.522 18.925 45.011 45.011 18.414 45.011-18.414 18.925-45.011z" />
<glyph unicode="&#xe02c;" glyph-name="zoom-bold" data-tags="zoom-bold" d="M695.624 319.616q54.218 70.585 68.539 157.538 12.276 84.907-16.368 165.722-28.643 83.884-95.648 142.705t-152.935 77.235q-83.884 18.414-166.745-5.115-84.907-24.551-147.82-86.953t-86.442-147.309q-23.528-82.861-5.115-166.745 18.414-86.953 77.235-153.447t141.682-96.16q81.838-27.62 166.745-15.345 86.953 13.299 156.515 68.539l282.342-281.319 60.356 60.356zM426.581 273.582q-69.562 0-128.384 34.27t-93.091 93.091-34.27 128.384 34.27 128.384 93.091 93.091 128.384 34.27 128.384-34.27 93.091-93.091 34.27-128.384-34.27-128.384-93.091-93.091-128.384-34.27zM469.546 661.291h-85.93v-88.999h-84.907v-85.93h84.907v-80.815h85.93v80.815h84.907v85.93h-84.907v88.999z" />
<glyph unicode="&#xe02d;" glyph-name="zoom-out-bold" data-tags="zoom-out-bold" d="M977.966 39.321l-282.342 280.296q54.218 70.585 68.539 157.538 12.276 84.907-16.368 165.722-28.643 83.884-95.648 142.705t-152.935 77.235q-83.884 18.414-166.745-5.115-84.907-24.551-147.82-86.953t-86.442-147.309q-23.528-82.861-5.115-166.745 18.414-86.953 77.235-153.447t141.682-96.16q81.838-27.62 166.745-15.345 86.953 13.299 156.515 68.539l282.342-281.319zM170.837 529.327q0 69.562 34.27 128.384t93.091 93.091 128.384 34.27 128.384-34.27 93.091-93.091 34.27-128.384-34.27-128.384-93.091-93.091-128.384-34.27-128.384 34.27-93.091 93.091-34.27 128.384zM341.674 572.292h170.837v-85.93h-170.837v85.93z" />
<glyph unicode="&#xe02e;" glyph-name="alert-bold" data-tags="alert-bold" d="M813.267 146.733q-81.838-79.792-192.32-107.413-107.413-26.597-214.825 2.046-109.459 29.666-190.274 110.482t-110.482 190.274q-28.643 107.413-2.046 214.825 27.62 110.482 107.413 193.343t191.297 114.062 223.52 1.534 193.343-110.993 110.993-193.343-1.534-223.52-115.085-191.297zM554.454 704.256h-84.907v-298.709h84.907v298.709zM512.511 362.581q-26.597 0-45.522-18.925t-18.925-45.011 18.925-45.011 45.011-18.925 45.011 18.925 18.925 45.011-18.925 45.011-44.5 18.925z" />
<glyph unicode="&#xe02f;" glyph-name="error-bold" data-tags="error-bold" d="M682.326 875.093h-340.651l-256.767-256.767v-340.651l256.767-256.767h340.651l256.767 256.767v340.651zM469.546 661.291h84.907v-255.744h-84.907v255.744zM512.511 234.709q-26.597 0-45.522 18.925t-18.925 45.011 18.925 45.011 45.011 18.925 45.011-18.925 18.925-45.011-18.925-45.011-44.5-18.925z" />
<glyph unicode="&#xe030;" glyph-name="help-bold" data-tags="help-bold" d="M813.267 749.267q-81.838 79.792-192.32 107.413-107.413 26.597-214.825-2.046-109.459-29.666-190.274-110.482t-110.482-190.274q-28.643-107.413-2.046-214.825 27.62-110.482 107.413-193.343t191.297-114.062 223.52-1.534 193.343 110.993 110.993 193.343-1.534 223.52-115.085 191.297zM491.029 191.744q-19.437 0-35.804 10.741t-23.528 28.643-3.58 37.339 17.391 32.735 32.735 17.391 36.827-3.58 28.643-23.528 10.741-35.293q0-26.597-18.414-45.522t-45.011-18.925zM575.936 417.822q-10.23-5.115-16.368-15.345t-6.138-21.483v-18.414h-83.884v18.414q-1.023 37.85 19.437 69.562t55.241 46.034q29.666 12.276 43.988 41.431t6.138 59.844-34.781 48.591-58.31 13.81-53.195-28.132-21.483-55.752h-84.907q0 41.942 19.437 78.769t53.195 60.867 75.7 29.155 80.815-9.207 67.005-45.011 38.873-71.097 1.534-80.815-35.804-72.631-65.471-48.591h-1.023z" />
<glyph unicode="&#xe031;" glyph-name="info-bold" data-tags="info-bold" d="M777.463 756.428q-77.746 77.746-184.136 105.367-102.298 26.597-205.618 0-105.367-27.62-183.624-105.878t-105.878-183.624q-26.597-103.321 0-205.618 27.62-106.39 105.878-184.136t183.624-105.367q103.321-26.597 205.618 0 106.39 27.62 184.136 105.367t105.367 184.136q26.597 102.298 0 205.618-27.62 105.367-105.367 184.136zM469.546 725.738q12.276 0 23.017-7.161t15.856-19.437 2.557-25.063-11.764-21.994-21.483-11.253-24.551 2.557-19.437 15.345-7.161 24.040q0 17.391 12.787 30.178t30.178 12.787zM597.419 234.709h-213.802v42.965h85.93v255.744h-42.965v42.965h85.93v-298.709h84.907v-42.965zM469.546 704.256v0z" />
<glyph unicode="&#xe032;" glyph-name="notifications-bold" data-tags="notifications-bold" d="M925.794 106.837l-35.804 35.804q-37.85 37.85-58.821 87.976t-20.971 103.321v114.573q1.023 85.93-45.522 159.073t-124.292 110.993q0 34.781-17.391 63.936t-47.057 46.545-63.936 17.391-63.936-17.391-47.057-46.545-17.391-63.936q-77.746-37.85-124.292-110.993t-45.522-160.096v-113.55q0-53.195-20.46-103.321t-59.333-87.976l-35.804-35.804h293.594q13.299-37.85 46.545-61.379t73.654-23.528 73.654 23.528 46.545 61.379h293.594z" />
<glyph unicode="&#xe033;" glyph-name="security-alert-bold" data-tags="security-alert-bold" d="M896.128 924.196v-543.201q-1.023-105.367-58.821-193.343t-154.981-130.941l-169.814-80.815-170.837 80.815q-97.183 42.965-154.981 131.453t-58.821 193.854v535.017l33.758-23.528q37.85-31.712 84.396-47.568t95.648-13.81q42.965-4.092 83.884 11.253t70.585 47.057l16.368 13.299 14.322-13.299q29.666-31.712 71.097-47.057t84.396-11.253q49.103-4.092 95.137 10.741t82.861 47.568zM554.454 618.326h-84.907v-255.744h84.907v255.744zM512.511 319.616q-26.597 0-45.522-18.414t-18.925-45.011 18.925-45.522 45.011-18.925 45.011 18.925 18.925 45.522-18.925 45.011-44.5 18.414z" />
<glyph unicode="&#xe034;" glyph-name="security-bold" data-tags="security-bold" d="M817.359 889.415q-33.758-31.712-77.235-46.545t-89.51-10.741q-40.919-4.092-79.281 11.253t-65.982 46.034l-14.322 15.345-15.345-15.345q-27.62-30.689-65.982-46.034t-79.281-11.253q-47.057-2.046-91.045 13.299t-79.792 46.034l-31.712 25.574v-536.040q0-102.298 54.218-190.274t146.286-134.010l162.653-80.815 161.63 80.815q92.068 46.034 146.286 134.010t54.218 190.274v545.247z" />
<glyph unicode="&#xe035;" glyph-name="warning-bold" data-tags="warning-bold" d="M996.38 63.872h-968.759l484.891 875.668zM554.454 576.384h-84.907v-256.767h84.907v256.767zM512.511 277.674q-26.597 0-45.522-18.925t-18.925-45.522 18.925-45.011 45.011-18.414 45.011 18.414 18.925 45.011-18.925 45.522-45.522 18.925h1.023z" />
<glyph unicode="&#xe036;" glyph-name="archive-bold" data-tags="archive-bold" d="M896.128 789.163h-768.256q-17.391 0-30.178-12.276t-12.787-30.689v-169.814h854.186v169.814q0 18.414-12.787 30.689t-30.178 12.276zM896.128 533.419v-426.581q0-17.391-12.787-30.178t-30.178-12.787h-682.326q-17.391 0-30.178 12.787t-12.787 30.178v426.581h768.256zM618.901 341.099v42.965q0 9.207-6.138 15.345t-15.345 6.138h-170.837q-9.207 0-15.345-6.138t-6.138-15.345v-42.965q0-8.184 6.138-14.833t15.345-6.649h170.837q9.207 0 15.345 6.649t6.138 14.833z" />
<glyph unicode="&#xe037;" glyph-name="attachment-bold" data-tags="attachment-bold" d="M255.744 85.355q-58.31 0-106.901 32.735t-71.097 86.953-11.253 111.504 52.172 99.229l406.122 405.099q47.057 51.149 114.062 70.585t134.521 2.046 116.619-66.494 65.982-116.108-2.557-134.010-69.562-114.062l-350.881-351.904-59.333 59.333 351.904 352.927q23.528 23.528 36.316 54.729t12.787 64.448-12.787 64.448-36.316 54.729q-32.735 31.712-76.212 42.965t-86.442 0-75.7-42.965l-406.122-406.122q-20.46-20.46-28.132-48.591t0-55.752 28.132-49.103q31.712-30.689 76.212-30.689t77.235 30.689l354.973 355.996q14.322 14.322 14.322 33.758t-14.322 33.758v0q-13.299 13.299-33.247 13.299t-33.247-13.299l-259.836-258.813-60.356 60.356 259.836 259.836q24.551 24.551 58.31 33.758t67.516 1.023 60.356-32.735l2.046-3.069q25.574-25.574 34.781-59.844t0-68.539-34.781-59.844l-357.019-355.996q-26.597-27.62-62.913-41.942t-75.189-14.322z" />
<glyph unicode="&#xe038;" glyph-name="calendar-bold" data-tags="calendar-bold" d="M320.192 832.128q-9.207 0-15.345-6.138t-6.138-15.345v-84.907q0-9.207 6.138-15.345t14.833-6.138 15.345 6.138 6.649 15.345v84.907q0 9.207-6.649 15.345t-14.833 6.138zM853.163 725.738q0 26.597-18.414 45.011t-45.011 18.414h-64.448v-63.425q0-26.597-18.925-45.522t-45.011-18.925-45.011 18.925-18.925 45.522v63.425h-213.802v-63.425q0-26.597-18.414-45.522t-45.011-18.925-45.522 18.925-18.925 45.522v63.425h-63.425q-26.597 0-45.522-18.414t-18.925-45.011v-107.413h725.291v107.413zM127.872 128.32q0-26.597 18.925-45.522t45.522-18.925h597.419q26.597 0 45.011 18.925t18.414 45.522v448.064h-725.291v-448.064zM660.843 832.128q-8.184 0-14.322-6.138t-6.138-15.345v-84.907q0-9.207 6.138-15.345t14.833-6.138 14.833 6.138 6.138 15.345v84.907q0 9.207-6.138 15.345t-15.345 6.138z" />
<glyph unicode="&#xe039;" glyph-name="calendar-month-bold" data-tags="calendar-month-bold" d="M320.192 704.256q8.184 0 14.833 6.138t6.649 15.345v84.907q0 9.207-6.649 15.345t-15.345 6.138-14.833-6.138-6.138-15.345v-84.907q0-9.207 6.138-15.345t15.345-6.138zM789.738 789.163h-64.448v-63.425q0-26.597-18.925-45.522t-45.011-18.925-45.011 18.925-18.925 45.522v63.425h-213.802v-63.425q0-26.597-18.414-45.522t-45.011-18.925-45.522 18.925-18.925 45.522v63.425h-63.425q-26.597 0-45.522-18.414t-18.925-45.011v-107.413h725.291v107.413q0 26.597-18.414 45.011t-45.011 18.414zM127.872 128.32q0-26.597 18.925-45.522t45.522-18.925h597.419q26.597 0 45.011 18.925t18.414 45.522v448.064h-725.291v-448.064zM170.837 277.674h127.872v127.872h-127.872v42.965h127.872v84.907h42.965v-84.907h127.872v84.907h42.965v-84.907h127.872v84.907h41.942v-84.907h127.872v-42.965h-127.872v-127.872h127.872v-42.965h-127.872v-127.872h-41.942v127.872h-127.872v-127.872h-42.965v127.872h-127.872v-127.872h-42.965v127.872h-127.872v42.965zM512.511 405.546h127.872v-127.872h-127.872v127.872zM341.674 405.546h127.872v-127.872h-127.872v127.872zM660.843 704.256q9.207 0 15.345 6.138t6.138 15.345v84.907q0 9.207-6.138 15.345t-14.833 6.138-14.833-6.138-6.138-15.345v-84.907q0-9.207 6.138-15.345t14.322-6.138z" />
<glyph unicode="&#xe03a;" glyph-name="chart-analytics-bold" data-tags="chart-analytics-bold" d="M127.872 63.872v355.996l129.918 137.079q17.391-4.092 34.781-1.023t31.712 13.299l123.78-62.402q1.023-35.804 27.109-59.844t61.379-23.017 59.333 26.597 23.017 61.379q0 10.23-3.069 21.483l152.424 152.424q10.23-3.069 21.483-3.069 35.804 0 60.356 25.063t24.551 60.356-24.551 60.356-60.356 25.063-60.356-25.063-24.551-60.867q0-11.253 3.069-21.483l-153.447-151.401q-10.23 2.046-21.483 2.046-25.574 0-47.057-13.299l-123.78 61.379q-1.023 35.804-26.597 59.844t-60.867 23.017-59.844-26.597-23.528-61.379q0-12.276 4.092-24.551l-67.516-72.631v289.502h-84.907v-853.163h853.163v84.907h-768.256zM725.291 576.384h170.837v-469.546h-170.837v469.546zM469.546 319.616h170.837v-212.779h-170.837v212.779zM213.802 405.546h169.814v-298.709h-169.814v298.709z" />
<glyph unicode="&#xe03b;" glyph-name="chart-bar-bold" data-tags="chart-bar-bold" d="M170.837 875.093h-85.93v-854.186h854.186v85.93h-768.256v768.256zM768.256 704.256h170.837v-554.454h-170.837v554.454zM512.511 362.581h169.814v-212.779h-169.814v212.779zM255.744 448.511h170.837v-298.709h-170.837v298.709z" />
<glyph unicode="&#xe03c;" glyph-name="chart-bar-horizontal-bold" data-tags="chart-bar-horizontal-bold" d="M170.837 106.837v768.256h-85.93v-854.186h854.186v85.93h-768.256zM213.802 362.581h554.454v-170.837h-554.454v170.837zM213.802 618.326h212.779v-169.814h-212.779v169.814zM213.802 875.093h298.709v-170.837h-298.709v170.837z" />
<glyph unicode="&#xe03d;" glyph-name="chart-line-graph-bold" data-tags="chart-line-graph-bold" d="M896.128 448.511q-30.689 0-55.241-19.437t-30.689-49.103l-115.596-38.873q-27.62 23.528-63.936 20.46t-58.821-31.712l-152.424 21.483q-12.276 27.62-38.873 40.919t-55.752 7.672-48.591-28.132-20.46-52.172v-4.092l-84.907-56.264v199.481l142.194 122.757q20.46-8.184 41.431-4.603t37.339 15.856l162.653-69.562q2.046-35.804 28.643-59.333t61.89-20.971 58.821 28.643 21.483 61.89q0 14.322-5.115 27.62l159.584 185.159h16.368q34.781 0 59.844 25.063t25.063 60.356-25.063 60.356-60.356 25.063-60.356-25.063-25.063-59.844q1.023-14.322 5.115-28.643l-159.584-185.159q-17.391 4.092-34.781 0t-31.712-15.345l-162.653 68.539q-5.115 35.804-33.758 56.775t-63.936 15.856-56.775-33.758-16.368-64.448l-84.907-74.677v303.824h-85.93v-854.186h854.186v85.93h-768.256v50.126l132.987 84.907q26.597-13.299 55.752-6.649t48.591 30.178l152.424-21.483q10.23-27.62 35.293-42.965t53.706-12.276 50.126 23.017 25.574 48.591l115.596 38.873q21.483-19.437 50.126-21.483t53.195 13.299 34.27 42.454 1.534 54.218-31.712 43.988-52.172 15.856v1.023z" />
<glyph unicode="&#xe03e;" glyph-name="chart-pie-bold" data-tags="chart-pie-bold" d="M981.035 511.936q0 110.482-55.241 204.595-53.195 92.068-145.263 145.263-94.114 55.241-204.595 55.241h-21.483v-426.581h426.581v21.483zM512.511 832.128h-21.483q-91.045 0-171.86-38.362t-138.613-106.39-81.327-155.493-7.672-175.952 67.005-161.63 129.407-118.665 167.768-52.683 173.395 23.017 148.332 93.602l15.345 15.345-280.296 280.296v396.915zM566.729 448.511l323.261-323.261 15.345 14.322q57.287 57.287 87.976 131.964t30.689 155.493v21.483h-457.271z" />
<glyph unicode="&#xe03f;" glyph-name="chart-trend-bold" data-tags="chart-trend-bold" d="M896.128 106.837v511.489h-170.837v-511.489h-42.965v255.744h-169.814v-255.744h-42.965v383.616h-170.837v-383.616h-42.965v127.872h-170.837v-127.872h-41.942v-85.93h938.070v85.93h-84.907zM370.318 633.67l215.848-85.93 245.514 245.514v-67.516h85.93v212.779h-213.802v-84.907h68.539l-206.641-206.641-210.733 84.907-275.181-230.17 54.218-65.471z" />
<glyph unicode="&#xe040;" glyph-name="chart-trend-down-bold" data-tags="chart-trend-down-bold" d="M896.128 106.837v127.872h-170.837v-127.872h-42.965v255.744h-169.814v-255.744h-42.965v383.616h-170.837v-383.616h-42.965v511.489h-170.837v-511.489h-41.942v-85.93h938.070v85.93h-84.907zM738.589 404.523l11.253-83.884 194.366 24.551-24.551 193.343-84.907-10.23 7.161-57.287-690.509 460.34-47.057-70.585 675.165-451.133z" />
<glyph unicode="&#xe041;" glyph-name="chart-trend-up-bold" data-tags="chart-trend-up-bold" d="M896.128 106.837v511.489h-170.837v-511.489h-42.965v383.616h-169.814v-383.616h-42.965v255.744h-170.837v-255.744h-42.965v127.872h-170.837v-127.872h-41.942v-85.93h896.128v85.93h-42.965zM109.459 306.318l689.487 459.317-7.161-56.264 84.907-10.23 24.551 193.343-194.366 24.551-10.23-84.907 40.919-5.115-676.188-450.11z" />
<glyph unicode="&#xe042;" glyph-name="clipboard-bold" data-tags="clipboard-bold" d="M554.454 875.093q0 17.391-12.276 29.666t-30.178 12.276-30.178-12.276-12.276-29.666v-42.965h-127.872v-127.872h340.651v127.872h-127.872v42.965zM810.198 789.163h-84.907v-127.872h-426.581v127.872h-84.907q-18.414 0-30.689-12.276t-12.276-30.689v-682.326q0-17.391 12.276-30.178t30.689-12.787h596.396q18.414 0 30.689 12.787t12.276 30.178v682.326q0 18.414-12.276 30.689t-30.689 12.276z" />
<glyph unicode="&#xe043;" glyph-name="comment-alert-bold" data-tags="comment-alert-bold" d="M896.128 767.68v-511.489q0-26.597-18.925-45.522t-45.522-18.925h-332.468l-157.538-157.538v157.538h-149.355q-26.597 0-45.522 18.925t-18.925 45.522v511.489q0 26.597 18.925 45.522t45.522 18.925h639.361q26.597 0 45.522-18.925t18.925-45.522zM554.454 704.256h-84.907v-255.744h84.907v255.744zM575.936 341.099q0 26.597-18.925 45.522t-45.011 18.925-45.011-18.925-18.925-45.522 18.925-45.011 45.011-18.414 45.011 18.414 18.925 45.011z" />
<glyph unicode="&#xe044;" glyph-name="comment-bold" data-tags="comment-bold" d="M896.128 767.68v-511.489q0-26.597-18.925-45.522t-45.522-18.925h-332.468l-157.538-157.538v157.538h-149.355q-26.597 0-45.522 18.925t-18.925 45.522v511.489q0 26.597 18.925 45.522t45.522 18.925h639.361q26.597 0 45.522-18.925t18.925-45.522zM597.419 704.256h-341.674v-85.93h341.674v85.93zM768.256 576.384h-512.511v-85.93h512.511v85.93zM768.256 448.511h-512.511v-85.93h512.511v85.93z" />
<glyph unicode="&#xe045;" glyph-name="comments-bold" data-tags="comments-bold" d="M874.645 533.419h-21.483v212.779q0 35.804-25.063 60.867t-59.844 25.063h-597.419q-35.804 0-60.867-25.063t-25.063-60.867v-340.651q0-35.804 25.063-60.867t60.867-25.063v-188.228l188.228 188.228h110.482v-63.425q0-26.597 18.414-45.522t45.011-18.925h119.688l157.538-157.538v157.538h64.448q26.597 0 45.522 18.925t18.925 45.522v212.779q0 26.597-18.925 45.522t-45.522 18.925zM469.546 468.971v-63.425h-145.263l-68.539-68.539v68.539h-84.907v340.651h597.419v-212.779h-235.285q-26.597 0-45.011-18.925t-18.414-45.522z" />
<glyph unicode="&#xe046;" glyph-name="eraser-bold" data-tags="eraser-bold" d="M121.734 386.11q-23.528-23.528-32.224-55.241t0-63.936 32.224-55.752l79.792-80.815q14.322-13.299 30.689-23.528h-104.344v-85.93h554.454v85.93h-103.321q16.368 10.23 29.666 23.528l165.722 165.722-371.341 371.341zM945.231 642.877l-196.412 195.389q-17.391 17.391-39.896 27.109t-47.568 9.718-47.568-9.718-39.896-27.109l-110.482-110.482 371.341-371.341 110.482 110.482q23.528 23.528 31.712 55.752t0 63.936-31.712 56.264zM725.291 106.837h84.907v-85.93h-84.907v85.93zM853.163 106.837h85.93v-85.93h-85.93v85.93z" />
<glyph unicode="&#xe047;" glyph-name="file-bold" data-tags="file-bold" d="M840.887 704.256l-158.561 157.538v-157.538h158.561zM640.384 875.093h-469.546v-854.186h682.326v640.384h-212.779v213.802z" />
<glyph unicode="&#xe048;" glyph-name="file-document-bold" data-tags="file-document-bold" d="M840.887 704.256l-158.561 157.538v-157.538h158.561zM640.384 661.291h212.779v-640.384h-682.326v854.186h469.546v-213.802zM682.326 576.384h-383.616v-42.965h383.616v42.965zM682.326 490.454h-383.616v-41.942h383.616v41.942zM682.326 405.546h-383.616v-42.965h383.616v42.965zM532.971 319.616h-234.262v-41.942h234.262v41.942z" />
<glyph unicode="&#xe049;" glyph-name="file-image-bold" data-tags="file-image-bold" d="M840.887 704.256l-158.561 157.538v-157.538h158.561zM640.384 661.291h212.779v-640.384h-682.326v854.186h469.546v-213.802zM574.913 525.235l-92.068-231.193-85.93 84.907-111.504-229.147h451.133zM383.616 511.936q26.597 0 45.522 18.925t18.925 45.522-18.925 45.011-45.522 18.414-45.011-18.414-18.414-45.011 18.414-45.522 45.011-18.925z" />
<glyph unicode="&#xe04a;" glyph-name="file-report-bold" data-tags="file-report-bold" d="M840.887 704.256l-158.561 157.538v-157.538h158.561zM640.384 661.291h212.779v-640.384h-682.326v854.186h469.546v-213.802zM341.674 191.744v99.229l111.504 149.355 127.872-84.907 140.148 186.182-33.758 25.574-116.619-154.47-127.872 85.93-101.275-136.056v213.802h-42.965v-426.581h426.581v41.942h-383.616z" />
<glyph unicode="&#xe04b;" glyph-name="file-video-bold" data-tags="file-video-bold" d="M840.887 704.256l-158.561 157.538v-157.538h158.561zM640.384 661.291h212.779v-640.384h-682.326v854.186h469.546v-213.802zM383.616 549.786v-331.445l276.204 165.722z" />
<glyph unicode="&#xe04c;" glyph-name="find-location-bold" data-tags="find-location-bold" d="M-3.069 462.833l432.719-97.183 97.183-432.719 432.719 962.621z" />
<glyph unicode="&#xe04d;" glyph-name="folder-bold" data-tags="folder-bold" d="M127.872 149.802q17.391 0 30.178 12.276t12.787 29.666v426.581q0 18.414 12.276 30.689t30.689 12.276h639.361v42.965q0 17.391-12.276 29.666t-30.689 12.276h-378.501q-13.299 0-19.437 12.276l-18.414 37.85q-8.184 16.368-24.040 26.086t-33.247 9.718h-208.687q-17.391 0-30.178-12.787t-12.787-30.178v-597.419q0-17.391 12.787-29.666t30.178-12.276zM213.802 618.326v-426.581q-1.023-28.643-18.414-51.66t-46.034-30.178q10.23-3.069 21.483-3.069h703.808q26.597 0 45.522 18.414t18.925 45.011v406.122q0 17.391-12.787 29.666t-30.178 12.276h-682.326z" />
<glyph unicode="&#xe04e;" glyph-name="globe-2-bold" data-tags="globe-2-bold" d="M939.093 448.511q0-116.619-58.31-215.848-57.287-96.16-153.447-153.447-99.229-58.31-215.337-58.31t-215.337 58.31q-96.16 57.287-153.447 153.447-58.31 99.229-58.31 215.337t58.31 215.337q57.287 96.16 153.447 153.447 99.229 58.31 215.337 58.31t215.337-58.31q96.16-57.287 153.447-153.447 58.31-99.229 58.31-214.825zM476.707 746.198q3.069-28.643 23.528-38.362t47.057 3.58q15.345 7.161 19.437-19.437 4.092-20.46 1.023-55.241l-3.069-31.712q-11.253 0-39.896-6.138-36.827-9.207-54.218-9.207-30.689-1.023-47.057 15.345l-1.023 6.138q-3.069 5.115-10.23 10.23-9.207 5.115-25.574 6.138-20.46 2.046-51.149-4.603t-51.149-29.155q-16.368-19.437-26.597-48.080-6.138-20.46-9.207-43.988l-2.046-19.437 1.023-11.253q2.046-13.299 6.138-24.551 6.138-15.345 15.345-23.528 12.276-11.253 30.689-11.253 9.207 0 26.597 1.023 28.643 2.046 39.896 0 19.437-2.046 28.643-13.299 11.253-13.299 11.253-40.919l9.207-9.207q10.23-12.276 16.368-21.483 9.207-14.322 9.207-22.505t-8.695-26.086-8.695-26.597 10.23-30.689 21.483-38.362q13.299-18.414 21.483-18.414 34.781 0 59.333 10.23 46.034 21.483 46.034 77.746 30.689 12.276 53.195 35.804 11.253 10.23 8.184 20.46-2.046 5.115-13.81 15.345t-11.764 16.368q0 4.092 7.161 12.276 4.092 5.115 17.391 18.414 34.781 35.804 46.034 56.264 19.437 33.758 0 54.218l-10.23-4.092q-11.253-4.092-21.483-4.092-13.299 0-21.483 8.184l-5.115 18.414q-6.138 20.46-13.299 33.758-9.207 18.414-17.391 18.414-5.115 0-0.511 5.626t17.391 12.787 28.132 12.276q19.437 7.161 37.85 8.184 22.505 2.046 42.965-3.069 29.666 18.414 50.637 46.034t30.178 61.379q-41.942 49.103-97.694 81.838t-119.177 46.034q-47.057-13.299-75.7-29.666-38.873-22.505-36.827-48.080z" />
<glyph unicode="&#xe04f;" glyph-name="layout-columns-bold" data-tags="layout-columns-bold" d="M127.872 832.128h213.802v-768.256h-213.802v768.256zM383.616 832.128h213.802v-768.256h-213.802v768.256zM640.384 832.128h212.779v-768.256h-212.779v768.256z" />
<glyph unicode="&#xe050;" glyph-name="layout-gallery-2-bold" data-tags="layout-gallery-2-bold" d="M127.872 832.128h341.674v-341.674h-341.674v341.674zM554.454 832.128h341.674v-341.674h-341.674v341.674zM127.872 405.546h341.674v-341.674h-341.674v341.674zM554.454 405.546h341.674v-341.674h-341.674v341.674z" />
<glyph unicode="&#xe051;" glyph-name="layout-gallery-bold" data-tags="layout-gallery-bold" d="M127.872 832.128h213.802v-213.802h-213.802v213.802zM383.616 832.128h213.802v-213.802h-213.802v213.802zM640.384 832.128h212.779v-213.802h-212.779v213.802zM127.872 576.384h213.802v-213.802h-213.802v213.802zM383.616 576.384h213.802v-213.802h-213.802v213.802zM640.384 576.384h212.779v-213.802h-212.779v213.802zM127.872 319.616h213.802v-212.779h-213.802v212.779zM383.616 319.616h213.802v-212.779h-213.802v212.779zM640.384 319.616h212.779v-212.779h-212.779v212.779z" />
<glyph unicode="&#xe052;" glyph-name="layout-rows-bold" data-tags="layout-rows-bold" d="M127.872 832.128h768.256v-213.802h-768.256v213.802zM127.872 576.384h768.256v-213.802h-768.256v213.802zM127.872 319.616h768.256v-212.779h-768.256v212.779z" />
<glyph unicode="&#xe053;" glyph-name="link-bold" data-tags="link-bold" d="M917.61 785.071l-68.539 68.539q-27.62 27.62-64.959 37.339t-74.677 0-65.982-37.339l-152.424-153.447q-28.643-27.62-38.362-65.471t0-75.189 38.362-64.959l3.069-4.092-24.551-24.551-4.092 3.069q-27.62 28.643-64.959 38.362t-75.189 0-65.471-38.362l-153.447-152.424q-27.62-28.643-37.339-65.982t0-74.677 37.339-64.959l68.539-68.539q27.62-27.62 64.959-37.339t74.677 0 65.982 37.339l152.424 153.447q28.643 27.62 38.362 65.471t0 75.189-38.362 64.959l-3.069 4.092 24.551 24.551 4.092-3.069q27.62-28.643 64.959-38.362t75.189 0 65.471 38.362l153.447 152.424q27.62 28.643 37.339 65.982t0 74.677-37.339 64.959zM473.638 341.099q17.391-17.391 17.391-42.454t-17.391-42.454l-153.447-153.447q-17.391-17.391-42.454-17.391t-43.477 17.391l-67.516 67.516q-17.391 18.414-17.391 43.477t17.391 42.454l153.447 153.447q17.391 17.391 42.454 17.391t42.454-17.391l4.092-4.092-106.39-106.39 60.356-60.356 106.39 106.39zM857.255 639.808l-153.447-153.447q-17.391-17.391-42.454-17.391t-42.454 17.391l-4.092 4.092 106.39 106.39-60.356 60.356-106.39-106.39-4.092 4.092q-17.391 17.391-17.391 42.454t17.391 42.454l153.447 153.447q17.391 17.391 42.454 17.391t43.477-17.391l67.516-67.516q17.391-18.414 17.391-43.477t-17.391-42.454z" />
<glyph unicode="&#xe054;" glyph-name="location-bold" data-tags="location-bold" d="M768.256 595.82q0-76.723-65.471-230.17-46.034-110.482-121.734-249.606-42.965-79.792-71.608-126.849l-18.414-29.666-18.414 29.666q-28.643 47.057-72.631 126.849-74.677 139.125-121.734 249.606-64.448 153.447-64.448 230.17 0 74.677 36.827 139.125t101.275 101.275 138.613 36.827 138.613-36.827 101.786-101.275 37.339-139.125zM491.029 704.256q-45.011 0-76.212-31.201t-31.201-75.7 31.201-75.7 75.7-31.201 75.7 31.201 31.201 75.189q0 21.483-8.184 41.431t-23.017 34.781-34.781 23.017-40.408 8.184z" />
<glyph unicode="&#xe055;" glyph-name="location-pin-bold" data-tags="location-pin-bold" d="M554.454 539.556v-389.754h-84.907v389.754q-40.919 10.23-72.12 38.362t-45.522 67.005-9.207 80.815 29.155 76.212 60.867 53.706 79.281 19.437 79.281-19.437 60.867-53.706 29.155-76.212-9.207-80.815-45.522-67.005-72.12-38.362zM607.648 704.256q0 39.896-28.132 68.028t-68.028 28.132h-20.46v-42.965h21.483q21.483 0 37.339-15.856t15.856-37.339v-21.483h41.942v21.483zM512.511 20.907q-197.435 0-316.1 26.597-90.022 20.46-128.895 55.241-24.551 22.505-24.551 47.057 0 17.391 5.115 28.643 9.207 19.437 36.827 35.804 34.781 20.46 99.229 34.781 76.723 16.368 194.366 23.528h5.115v-84.907h-2.046q-118.665-3.069-232.216-37.85 177.998-50.126 362.134-42.965 185.159-7.161 363.157 42.965-115.596 34.781-237.331 37.85l6.138 85.93q152.424-10.23 237.331-35.804 65.471-20.46 87.976-50.126 12.276-15.345 12.276-37.85t-24.551-45.011q-38.873-34.781-128.895-56.264-118.665-27.62-315.077-27.62z" />
<glyph unicode="&#xe056;" glyph-name="map-bold" data-tags="map-bold" d="M383.616 685.842v-652.659l213.802 176.975v652.659zM896.128 650.038l-255.744 212.779v-652.659l255.744-212.779v652.659zM84.907 898.621v-652.659l256.767-212.779v652.659z" />
<glyph unicode="&#xe057;" glyph-name="print-bold" data-tags="print-bold" d="M755.98 746.198l-115.596 115.596v-115.596h115.596zM597.419 875.093h-341.674v-213.802h512.511v42.965h-170.837v170.837zM917.61 618.326h-811.221q-8.184 0-14.833-6.138t-6.649-15.345v-340.651q0-9.207 6.649-15.345t14.833-6.138h107.413v127.872h596.396v-127.872h107.413q8.184 0 14.833 6.138t6.649 15.345v340.651q0 9.207-6.649 15.345t-14.833 6.138zM255.744 319.616h512.511v-255.744h-512.511v255.744z" />
<glyph unicode="&#xe058;" glyph-name="re-do-bold" data-tags="re-do-bold" d="M951.369 409.638l-98.206-97.183v4.092h-2.046q-11.253 111.504-74.677 202.549-62.402 87.976-159.584 136.056-100.252 50.126-211.756 44.5t-205.618-64.959q-92.068-58.31-145.263-152.424-54.218-97.183-54.218-208.687h84.907q1.023 87.976 43.988 164.699 41.942 74.677 114.573 120.711 73.654 47.057 161.63 52.683t167.768-32.224q76.723-36.827 127.872-105.367 52.172-70.585 64.448-157.538l-95.137 95.137-60.356-61.379 200.503-200.503 201.526 200.503z" />
<glyph unicode="&#xe059;" glyph-name="script-bold" data-tags="script-bold" d="M560.591 111.952q-13.299 39.896 0 79.792h-496.144q-21.483-27.62-21.483-63.425 0-21.483 8.184-40.919t23.017-34.781 34.27-23.528 40.919-8.184h501.259q-33.758 9.207-57.798 33.758t-32.224 57.287zM768.256 767.68q0 37.85 24.040 67.516t60.867 36.827q-10.23 3.069-21.483 3.069h-511.489q-29.666 0-57.287-11.764t-48.591-32.735-32.224-48.080-11.253-56.775v-491.029h469.546l-26.597-33.758q-12.276-17.391-15.856-38.362t3.58-40.919 22.505-34.27 35.293-19.948 39.385-1.534 35.293 16.368 25.063 29.666 9.207 37.85v617.878zM640.384 405.546h-341.674v42.965h341.674v-42.965zM640.384 490.454h-341.674v42.965h341.674v-42.965zM640.384 576.384h-341.674v41.942h341.674v-41.942zM640.384 661.291h-341.674v42.965h341.674v-42.965zM874.645 832.128q-26.597 0-45.522-18.925t-18.925-45.522v-63.425h128.895v63.425q0 26.597-18.925 45.522t-45.522 18.925z" />
<glyph unicode="&#xe05a;" glyph-name="subscript-bold" data-tags="subscript-bold" d="M682.326 760.519l-255.744-255.744-255.744 255.744-60.356-60.356 255.744-255.744-255.744-256.767 60.356-60.356 255.744 256.767 255.744-256.767 60.356 60.356-255.744 256.767 255.744 255.744zM963.644 212.204q15.345 22.505 17.391 49.103t-10.23 50.126-35.293 37.339-49.614 13.81q-38.873 0-71.097-21.483t-46.545-56.264l77.746-33.758q5.115 12.276 15.856 19.437t24.040 7.161q6.138 0 9.718-5.626t-0.511-11.764l-143.217-204.595h229.147v85.93h-67.516z" />
<glyph unicode="&#xe05b;" glyph-name="superscript-bold" data-tags="superscript-bold" d="M682.326 760.519l-255.744-255.744-255.744 255.744-60.356-60.356 255.744-255.744-255.744-256.767 60.356-60.356 255.744 256.767 255.744-256.767 60.356 60.356-255.744 256.767 255.744 255.744zM963.644 766.657q15.345 22.505 17.391 49.103t-10.23 50.126-35.293 37.339-49.614 13.81q-38.873 0-71.097-20.971t-46.545-56.775l77.746-33.758q5.115 12.276 15.856 19.437t24.040 7.161q6.138 0 9.718-5.626t-0.511-10.741l-143.217-205.618h229.147v85.93h-67.516z" />
<glyph unicode="&#xe05c;" glyph-name="task-list-bold" data-tags="task-list-bold" d="M554.454 832.128v42.965q0 18.414-11.764 30.178t-30.689 11.764-30.689-11.764-11.764-30.178v-42.965h-127.872v-127.872h340.651v127.872h-127.872zM810.198 789.163h-84.907v-127.872h-426.581v127.872h-84.907q-19.437 0-31.201-11.764t-11.764-31.201v-682.326q0-19.437 11.764-31.201t31.201-11.764h596.396q19.437 0 31.201 11.764t11.764 31.201v682.326q0 19.437-11.764 31.201t-31.201 11.764zM320.192 256.192q-19.437 0-31.201 11.764t-11.764 30.689 11.764 30.689 31.201 11.764 31.201-11.764 11.764-30.689-11.764-30.689-31.201-11.764zM320.192 384.064q-19.437 0-31.201 11.764t-11.764 30.689 11.764 30.689 31.201 11.764 31.201-11.764 11.764-30.689-11.764-30.689-31.201-11.764zM320.192 511.936q-19.437 0-31.201 11.764t-11.764 31.201 11.764 30.689 31.201 11.253 31.201-11.253 11.764-30.689-11.764-31.201-31.201-11.764zM682.326 277.674h-255.744v41.942h255.744v-41.942zM682.326 405.546h-255.744v42.965h255.744v-42.965zM682.326 533.419h-255.744v42.965h255.744v-42.965z" />
<glyph unicode="&#xe05d;" glyph-name="tasks-bold" data-tags="tasks-bold" d="M554.454 832.128v42.965q0 17.391-12.276 29.666t-30.178 12.276-30.178-12.276-12.276-29.666v-42.965h-127.872v-127.872h340.651v127.872h-127.872zM810.198 789.163h-84.907v-127.872h-426.581v127.872h-84.907q-18.414 0-30.689-12.276t-12.276-30.689v-682.326q0-17.391 12.276-30.178t30.689-12.787h596.396q18.414 0 30.689 12.787t12.276 30.178v682.326q0 18.414-12.276 30.689t-30.689 12.276zM455.225 103.768l-195.389 195.389 60.356 59.333 120.711-120.711 251.652 376.456 70.585-48.080z" />
<glyph unicode="&#xe05e;" glyph-name="text-align-center-bold" data-tags="text-align-center-bold" d="M127.872 871.001h725.291v-85.93h-725.291v85.93zM234.262 743.129h512.511v-85.93h-512.511v85.93zM127.872 615.257h725.291v-85.93h-725.291v85.93zM42.965 486.362h896.128v-84.907h-896.128v84.907zM170.837 358.49h639.361v-84.907h-639.361v84.907zM277.227 230.617h426.581v-84.907h-426.581v84.907zM170.837 102.745h639.361v-84.907h-639.361v84.907z" />
<glyph unicode="&#xe05f;" glyph-name="text-align-left-bold" data-tags="text-align-left-bold" d="M84.907 871.001h811.221v-85.93h-811.221v85.93zM84.907 743.129h683.349v-85.93h-683.349v85.93zM84.907 615.257h768.256v-85.93h-768.256v85.93zM84.907 486.362h896.128v-84.907h-896.128v84.907zM84.907 358.49h811.221v-84.907h-811.221v84.907zM84.907 230.617h725.291v-84.907h-725.291v84.907zM84.907 102.745h811.221v-84.907h-811.221v84.907z" />
<glyph unicode="&#xe060;" glyph-name="text-align-right-bold" data-tags="text-align-right-bold" d="M127.872 871.001h811.221v-85.93h-811.221v85.93zM255.744 743.129h683.349v-85.93h-683.349v85.93zM170.837 615.257h768.256v-85.93h-768.256v85.93zM42.965 486.362h896.128v-84.907h-896.128v84.907zM127.872 358.49h811.221v-84.907h-811.221v84.907zM213.802 230.617h725.291v-84.907h-725.291v84.907zM127.872 102.745h811.221v-84.907h-811.221v84.907z" />
<glyph unicode="&#xe061;" glyph-name="text-bold-bold" data-tags="text-bold-bold" d="M730.406 490.454q53.195 42.965 71.608 107.924t-3.58 129.407-77.746 103.832-123.269 39.385h-383.616v-85.93h84.907v-682.326h-84.907v-84.907h383.616q56.264 0 106.39 24.040t85.93 65.982 51.149 96.16 6.649 108.947-39.385 101.275-77.746 76.212zM597.419 785.071q34.781 0 63.936-16.879t46.545-46.545 17.391-64.448-17.391-63.936-46.545-46.545-63.936-17.391h-213.802v255.744h213.802zM597.419 102.745h-213.802v341.674h213.802q46.034 0 85.419-23.017t62.402-62.402 23.017-85.419-23.017-85.419-62.402-62.402-85.419-23.017z" />
<glyph unicode="&#xe062;" glyph-name="text-bold" data-tags="text-bold" d="M84.907 871.001v-166.745h85.93v80.815h298.709v-725.291h-85.93v-84.907h256.767v84.907h-85.93v725.291h298.709v-80.815h85.93v166.745h-854.186z" />
<glyph unicode="&#xe063;" glyph-name="text-italic-bold" data-tags="text-italic-bold" d="M853.163 828.036v85.93h-255.744v-85.93h78.769l-381.57-725.291h-80.815v-84.907h255.744v84.907h-78.769l381.57 725.291h80.815z" />
<glyph unicode="&#xe064;" glyph-name="text-justify-bold" data-tags="text-justify-bold" d="M84.907 871.001h811.221v-85.93h-811.221v85.93zM84.907 743.129h811.221v-85.93h-811.221v85.93zM84.907 615.257h811.221v-85.93h-811.221v85.93zM84.907 486.362h811.221v-84.907h-811.221v84.907zM84.907 358.49h811.221v-84.907h-811.221v84.907zM84.907 230.617h811.221v-84.907h-811.221v84.907zM84.907 102.745h384.639v-84.907h-384.639v84.907z" />
<glyph unicode="&#xe065;" glyph-name="text-line-height-bold" data-tags="text-line-height-bold" d="M310.985 712.44l60.356 60.356-157.538 158.561-158.561-158.561 60.356-60.356 55.241 55.241v-647.544l-55.241 55.241-60.356-60.356 158.561-158.561 157.538 158.561-60.356 60.356-55.241-55.241v647.544zM426.581 871.001h469.546v-85.93h-469.546v85.93zM426.581 743.129h341.674v-85.93h-341.674v85.93zM426.581 615.257h426.581v-85.93h-426.581v85.93zM426.581 486.362h512.511v-84.907h-512.511v84.907zM426.581 358.49h469.546v-84.907h-469.546v84.907zM426.581 230.617h383.616v-84.907h-383.616v84.907zM426.581 102.745h469.546v-84.907h-469.546v84.907z" />
<glyph unicode="&#xe066;" glyph-name="text-margin-left-bold" data-tags="text-margin-left-bold" d="M512.511 871.001h426.581v-85.93h-426.581v85.93zM512.511 743.129h340.651v-85.93h-340.651v85.93zM512.511 615.257h383.616v-85.93h-383.616v85.93zM512.511 486.362h468.523v-84.907h-468.523v84.907zM512.511 358.49h426.581v-84.907h-426.581v84.907zM512.511 230.617h340.651v-84.907h-340.651v84.907zM512.511 102.745h426.581v-84.907h-426.581v84.907zM140.148 541.602l55.241-55.241h-130.941v-84.907h130.941l-55.241-55.241 60.356-60.356 158.561 158.561-158.561 157.538zM383.616 871.001h85.93v-853.163h-85.93v853.163z" />
<glyph unicode="&#xe067;" glyph-name="text-margin-right-bold" data-tags="text-margin-right-bold" d="M84.907 871.001h427.604v-85.93h-427.604v85.93zM170.837 743.129h341.674v-85.93h-341.674v85.93zM127.872 615.257h384.639v-85.93h-384.639v85.93zM42.965 486.362h469.546v-84.907h-469.546v84.907zM84.907 358.49h427.604v-84.907h-427.604v84.907zM170.837 230.617h341.674v-84.907h-341.674v84.907zM84.907 102.745h427.604v-84.907h-427.604v84.907zM554.454 871.001h85.93v-853.163h-85.93v853.163zM959.552 486.362h-130.941l55.241 55.241-60.356 60.356-158.561-157.538 158.561-158.561 60.356 60.356-55.241 55.241h130.941v84.907z" />
<glyph unicode="&#xe068;" glyph-name="text-strikethrough-bold" data-tags="text-strikethrough-bold" d="M939.093 444.42h-319.169l-7.161 4.092-143.217 71.608q-34.781 17.391-57.287 49.103t-28.643 69.562q-3.069 27.62 4.603 54.729t26.086 48.080 43.988 32.224 54.218 11.253q48.080 0 86.953-30.178t51.149-78.258l7.161-29.666 82.861 20.46-7.161 30.689q-13.299 50.126-46.034 88.999t-78.258 60.356-97.694 21.483q-46.034 0-88.488-18.925t-73.143-53.706-43.988-78.769-7.161-90.022q8.184-59.333 43.477-107.924t88.488-75.189h-302.801v-84.907h469.546q29.666-21.483 48.591-52.172t23.017-65.982-6.138-68.028-32.735-58.31-53.706-39.896-65.982-14.322h-5.115q-45.011 0-84.907 19.948t-67.005 55.241-36.316 79.281l-6.138 23.528-84.907-16.368 5.115-24.551q13.299-64.448 52.683-115.085t96.671-79.281 122.757-28.643h4.092q53.195 0 101.275 21.483t82.861 61.379 50.637 90.022 8.695 102.298q-7.161 59.333-39.896 108.436h228.124v85.93z" />
<glyph unicode="&#xe069;" glyph-name="text-tab-indent-bold" data-tags="text-tab-indent-bold" d="M469.546 871.001h426.581v-85.93h-426.581v85.93zM469.546 743.129h340.651v-85.93h-340.651v85.93zM469.546 615.257h383.616v-85.93h-383.616v85.93zM42.965 486.362h896.128v-84.907h-896.128v84.907zM42.965 358.49h853.163v-84.907h-853.163v84.907zM42.965 230.617h767.233v-84.907h-767.233v84.907zM42.965 102.745h853.163v-84.907h-853.163v84.907zM226.078 601.958l60.356-60.356 157.538 158.561-157.538 157.538-60.356-59.333 55.241-55.241h-216.871v-85.93h216.871z" />
<glyph unicode="&#xe06a;" glyph-name="text-tab-outdent-bold" data-tags="text-tab-outdent-bold" d="M469.546 871.001h426.581v-85.93h-426.581v85.93zM469.546 743.129h340.651v-85.93h-340.651v85.93zM469.546 615.257h383.616v-85.93h-383.616v85.93zM42.965 486.362h896.128v-84.907h-896.128v84.907zM42.965 358.49h853.163v-84.907h-853.163v84.907zM42.965 230.617h767.233v-84.907h-767.233v84.907zM42.965 102.745h853.163v-84.907h-853.163v84.907zM243.469 601.958l-55.241 55.241h174.929v85.93h-174.929l55.241 55.241-60.356 59.333-157.538-157.538 157.538-158.561z" />
<glyph unicode="&#xe06b;" glyph-name="text-underline-bold" data-tags="text-underline-bold" d="M127.872 20.907h811.221v-84.907h-811.221v84.907zM682.326 875.093v-85.93h85.93v-409.191q0-62.402-31.712-117.131t-85.93-85.93-117.131-31.201-117.642 31.201-85.93 85.93-31.201 117.131v409.191h84.907v85.93h-255.744v-85.93h85.93v-409.191q0-86.953 42.965-161.63 42.965-71.608 114.573-114.573 74.677-43.988 161.63-43.988t161.63 43.988q72.631 42.965 114.573 114.573 43.988 74.677 43.988 161.63v409.191h85.93v85.93h-256.767z" />
<glyph unicode="&#xe06c;" glyph-name="un-do-bold" data-tags="un-do-bold" d="M597.419 700.164q-108.436 0-202.549-51.149-92.068-50.126-151.401-136.056-60.356-88.999-70.585-196.412h-2.046v-4.092l-98.206 97.183-60.356-59.333 201.526-200.503 200.503 200.503-60.356 59.333-95.137-94.114q12.276 86.953 64.448 157.538 51.149 69.562 127.872 105.367 79.792 37.85 167.768 32.224t161.63-52.683q72.631-46.034 114.573-120.711 42.965-76.723 43.988-164.699h84.907q0 84.907-32.224 163.676t-92.579 138.613-138.613 92.579-163.165 32.735z" />
<glyph unicode="&#xe06d;" glyph-name="battery-100-bold" data-tags="battery-100-bold" d="M874.645 576.384h-21.483v63.425q0 26.597-18.414 45.522t-45.011 18.925h-597.419q-26.597 0-45.522-18.925t-18.925-45.522v-383.616q0-26.597 18.925-45.522t45.522-18.925h597.419q26.597 0 45.011 18.925t18.414 45.522v63.425h21.483q26.597 0 45.522 18.925t18.925 45.522v127.872q0 26.597-18.925 45.522t-45.522 18.925zM341.674 319.616h-85.93v256.767h85.93v-256.767zM469.546 319.616h-85.93v256.767h85.93v-256.767zM597.419 319.616h-84.907v256.767h84.907v-256.767zM725.291 319.616h-84.907v256.767h84.907v-256.767z" />
<glyph unicode="&#xe06e;" glyph-name="battery-25-bold" data-tags="battery-25-bold" d="M874.645 576.384h-21.483v63.425q0 26.597-18.414 45.522t-45.011 18.925h-597.419q-26.597 0-45.522-18.925t-18.925-45.522v-383.616q0-26.597 18.925-45.522t45.522-18.925h597.419q26.597 0 45.011 18.925t18.414 45.522v63.425h21.483q26.597 0 45.522 18.925t18.925 45.522v127.872q0 26.597-18.925 45.522t-45.522 18.925zM341.674 319.616h-85.93v256.767h85.93v-256.767z" />
<glyph unicode="&#xe06f;" glyph-name="battery-50-bold" data-tags="battery-50-bold" d="M874.645 576.384h-21.483v63.425q0 26.597-18.414 45.522t-45.011 18.925h-597.419q-26.597 0-45.522-18.925t-18.925-45.522v-383.616q0-26.597 18.925-45.522t45.522-18.925h597.419q26.597 0 45.011 18.925t18.414 45.522v63.425h21.483q26.597 0 45.522 18.925t18.925 45.522v127.872q0 26.597-18.925 45.522t-45.522 18.925zM341.674 319.616h-85.93v256.767h85.93v-256.767zM469.546 319.616h-85.93v256.767h85.93v-256.767z" />
<glyph unicode="&#xe070;" glyph-name="battery-75-bold" data-tags="battery-75-bold" d="M874.645 576.384h-21.483v63.425q0 26.597-18.414 45.522t-45.011 18.925h-597.419q-26.597 0-45.522-18.925t-18.925-45.522v-383.616q0-26.597 18.925-45.522t45.522-18.925h597.419q26.597 0 45.011 18.925t18.414 45.522v63.425h21.483q26.597 0 45.522 18.925t18.925 45.522v127.872q0 26.597-18.925 45.522t-45.522 18.925zM341.674 319.616h-85.93v256.767h85.93v-256.767zM469.546 319.616h-85.93v256.767h85.93v-256.767zM597.419 319.616h-84.907v256.767h84.907v-256.767z" />
<glyph unicode="&#xe071;" glyph-name="battery-bold" data-tags="battery-bold" d="M874.645 576.384h-21.483v63.425q0 26.597-18.414 45.522t-45.011 18.925h-597.419q-26.597 0-45.522-18.925t-18.925-45.522v-383.616q0-26.597 18.925-45.522t45.522-18.925h597.419q26.597 0 45.011 18.925t18.414 45.522v63.425h21.483q26.597 0 45.522 18.925t18.925 45.522v127.872q0 26.597-18.925 45.522t-45.522 18.925z" />
<glyph unicode="&#xe072;" glyph-name="battery-charging-bold" data-tags="battery-charging-bold" d="M653.682 533.419h-141.171v282.342l-227.101-453.179h141.171v-282.342zM298.709 149.802h-127.872q-35.804 0-60.867 24.551t-25.063 60.356v383.616q0 35.804 25.063 60.867t60.867 25.063h127.872v-85.93h-127.872v-383.616h127.872v-84.907zM768.256 149.802h-127.872v84.907h127.872v127.872h84.907v127.872h-84.907v127.872h-127.872v85.93h127.872q34.781 0 59.844-25.063t25.063-60.867v-41.942q35.804 0 60.867-25.063t25.063-60.867v-127.872q0-34.781-25.063-59.844t-60.867-25.063v-42.965q0-35.804-25.063-60.356t-59.844-24.551z" />
<glyph unicode="&#xe073;" glyph-name="battery-error-bold" data-tags="battery-error-bold" d="M426.581 746.198h85.93v-426.581h-85.93v426.581zM405.099 213.227q0-26.597 18.925-45.011t45.522-18.414 45.011 18.414 18.414 45.011-18.414 45.522-45.011 18.925-45.522-18.925-18.925-45.522zM298.709 149.802h-127.872q-35.804 0-60.867 24.551t-25.063 60.356v383.616q0 35.804 25.063 60.867t60.867 25.063h127.872v-85.93h-127.872v-383.616h127.872v-84.907zM768.256 149.802h-127.872v84.907h127.872v127.872h84.907v127.872h-84.907v127.872h-127.872v85.93h127.872q34.781 0 59.844-25.063t25.063-60.867v-41.942q35.804 0 60.867-25.063t25.063-60.867v-127.872q0-34.781-25.063-59.844t-60.867-25.063v-42.965q0-35.804-25.063-60.356t-59.844-24.551z" />
<glyph unicode="&#xe074;" glyph-name="cloud-bold" data-tags="cloud-bold" d="M746.773 191.744h-554.454q-52.172-2.046-97.183 22.505t-72.631 67.516-29.666 95.137 21.994 97.183 67.516 72.631 95.648 29.666q12.276 65.471 50.637 119.688t94.625 89.51 122.757 44.5 130.43-8.695 115.596-59.333 82.35-100.763q64.448-4.092 116.108-38.873t80.304-90.533 25.063-119.177-38.362-115.596-90.533-80.304-120.2-25.063zM192.32 490.454q-45.011 0-76.212-31.201t-31.201-75.189 31.201-75.189 76.212-31.201h554.454q40.919 0 75.189 19.948t54.218 54.218 19.948 74.677-19.948 74.677-54.218 54.729-75.189 20.46h-28.643l-11.253 25.574q-20.46 50.126-60.356 85.419t-90.533 50.637-103.832 6.649-96.671-39.385-69.562-77.235-30.178-99.74l-2.046-46.034-46.034 8.184q-8.184 1.023-15.345 0z" />
<glyph unicode="&#xe075;" glyph-name="cloud-download-bold" data-tags="cloud-download-bold" d="M554.454 124.228v281.319h-84.907v-281.319l-85.93 84.907-59.333-59.333 188.228-188.228 187.205 188.228-59.333 59.333zM774.394 704.256q-30.689 59.333-82.861 100.763t-115.596 59.333-129.918 8.184-123.269-44.5-94.625-88.999-51.149-120.711q-52.172-2.046-95.137-29.155t-67.005-72.12-22.505-97.183 29.155-95.648 72.631-67.516 97.183-21.994h235.285v84.907h-234.262q-45.011 0-76.212 31.201t-31.201 75.7 31.201 75.7 76.212 31.201h15.345l46.034-7.161 2.046 45.011q4.092 53.195 30.178 99.74t69.562 77.235 96.671 39.385 104.344-6.138 91.045-50.637 60.356-85.93l10.23-26.597h28.643q40.919 0 75.189-19.948t54.218-54.218 19.948-74.677-19.948-74.677-54.218-54.729-75.189-20.46h-149.355v-84.907h149.355q63.425-4.092 119.177 24.551t90.533 80.304 38.873 115.596-24.551 119.688-80.815 90.533-115.596 38.873z" />
<glyph unicode="&#xe076;" glyph-name="cloud-sync-bold" data-tags="cloud-sync-bold" d="M383.616 124.228v281.319h-84.907v-281.319l-84.907 84.907-60.356-59.333 188.228-188.228 188.228 188.228-60.356 59.333zM725.291 345.191l60.356 60.356-188.228 188.228-188.228-188.228 60.356-60.356 84.907 84.907v-323.261h85.93v323.261zM774.394 704.256q-30.689 59.333-82.861 100.763t-115.596 59.333-129.918 8.184-123.269-44.5-94.625-88.999-51.149-120.711q-52.172-2.046-95.137-29.155t-67.005-72.12-22.505-97.183 29.155-95.648 72.631-67.516 97.183-21.994h42.965v84.907h-42.965q-43.988 0-75.189 31.201t-31.201 75.7 31.201 75.7 75.189 31.201h16.368l45.011-7.161 3.069 45.011q4.092 53.195 30.178 99.74t69.562 77.235 96.671 39.385 104.344-6.138 91.045-50.637 60.356-85.93l10.23-26.597h28.643q40.919 0 75.189-19.948t54.218-54.218 19.948-74.677-19.948-74.677-54.218-54.729-75.189-20.46h-41.942v-84.907h41.942q64.448-4.092 120.2 24.551t90.533 80.304 38.362 115.596-25.063 119.688-80.304 90.533-116.108 38.873z" />
<glyph unicode="&#xe077;" glyph-name="cloud-upload-bold" data-tags="cloud-upload-bold" d="M640.384 345.191l59.333 60.356-187.205 188.228-188.228-188.228 59.333-60.356 85.93 84.907v-366.226h84.907v366.226zM774.394 704.256q-30.689 59.333-82.861 100.763t-115.596 59.333-129.918 8.184-123.269-44.5-94.625-88.999-51.149-120.711q-52.172-2.046-95.137-29.155t-67.005-72.12-22.505-97.183 29.155-95.648 72.631-67.516 97.183-21.994h235.285v84.907h-234.262q-45.011 0-76.212 31.201t-31.201 75.7 31.201 75.7 76.212 31.201h15.345l46.034-7.161 2.046 45.011q4.092 53.195 30.178 99.74t69.562 77.235 96.671 39.385 104.344-6.138 91.045-50.637 60.356-85.93l10.23-26.597h28.643q40.919 0 75.189-19.948t54.218-54.218 19.948-74.677-19.948-74.677-54.218-54.729-75.189-20.46h-149.355v-84.907h149.355q63.425-4.092 119.177 24.551t90.533 80.304 38.873 115.596-24.551 119.688-80.815 90.533-115.596 38.873z" />
<glyph unicode="&#xe078;" glyph-name="code-bar-bold" data-tags="code-bar-bold" d="M170.837 190.721h-85.93v-211.756h212.779v84.907h-126.849v126.849zM170.837 789.163h126.849v85.93h-212.779v-212.779h85.93v126.849zM726.314 875.093v-85.93h126.849v-126.849h85.93v212.779h-212.779zM853.163 63.872h-126.849v-84.907h212.779v211.756h-85.93v-126.849zM255.744 661.291h85.93v-469.546h-85.93v469.546zM469.546 661.291h84.907v-469.546h-84.907v469.546zM383.616 661.291h42.965v-469.546h-42.965v469.546zM725.291 661.291h42.965v-469.546h-42.965v469.546zM597.419 661.291h42.965v-469.546h-42.965v469.546z" />
<glyph unicode="&#xe079;" glyph-name="code-qr-bold" data-tags="code-qr-bold" d="M170.837 233.686h-85.93v-212.779h212.779v85.93h-126.849v126.849zM170.837 789.163h126.849v85.93h-212.779v-212.779h85.93v126.849zM726.314 875.093v-85.93h126.849v-126.849h85.93v212.779h-212.779zM853.163 106.837h-126.849v-85.93h212.779v212.779h-85.93v-126.849zM213.802 576.384h127.872v127.872h-127.872v-127.872zM255.744 661.291h42.965v-42.965h-42.965v42.965zM213.802 191.744h127.872v127.872h-127.872v-127.872zM255.744 277.674h42.965v-42.965h-42.965v42.965zM810.198 704.256h-127.872v-127.872h127.872v127.872zM768.256 618.326h-42.965v42.965h42.965v-42.965zM213.802 490.454h127.872v-41.942h41.942v84.907h-169.814v-42.965zM213.802 405.546h212.779v-42.965h-212.779v42.965zM810.198 319.616h-126.849v-41.942h84.907v-42.965h-127.872v170.837h127.872v-42.965h41.942v85.93h-211.756v-256.767h211.756v127.872zM470.569 448.511h41.942v-85.93h-41.942v85.93zM598.442 704.256h41.942v-85.93h-41.942v85.93zM470.569 319.616h83.884v-41.942h-83.884v41.942zM426.581 318.593h-42.965v-126.849h170.837v42.965h-127.872v83.884zM469.546 618.326h-42.965v84.907h-42.965v-126.849h85.93v41.942zM512.511 533.419h-85.93v-42.965h127.872v212.779h-41.942v-169.814zM598.442 533.419h212.779v-42.965h-212.779v42.965z" />
<glyph unicode="&#xe07a;" glyph-name="code-scan-bold" data-tags="code-scan-bold" d="M768.256 661.291h-42.965v-170.837h-84.907v170.837h-42.965v-170.837h-42.965v170.837h-84.907v-170.837h-42.965v170.837h-42.965v-170.837h-41.942v170.837h-85.93v-170.837h-170.837v-84.907h854.186v84.907h-170.837v170.837zM255.744 319.616h85.93v-127.872h-85.93v127.872zM469.546 319.616h84.907v-127.872h-84.907v127.872zM383.616 319.616h42.965v-127.872h-42.965v127.872zM725.291 319.616h42.965v-127.872h-42.965v127.872zM597.419 319.616h42.965v-127.872h-42.965v127.872zM170.837 233.686h-85.93v-212.779h212.779v85.93h-126.849v126.849zM170.837 789.163h126.849v85.93h-212.779v-212.779h85.93v126.849zM726.314 875.093v-85.93h126.849v-126.849h85.93v212.779h-212.779zM853.163 106.837h-126.849v-85.93h212.779v212.779h-85.93v-126.849z" />
<glyph unicode="&#xe07b;" glyph-name="connected-bold" data-tags="connected-bold" d="M853.163 576.384q-40.919 0-73.654-23.528t-46.034-62.402h-442.949q-15.345 43.988-55.752 68.028t-86.442 15.856-76.212-43.988-30.178-82.35 30.178-82.35 76.212-43.988 86.442 15.856 55.752 68.028h442.949q15.345-46.034 58.31-69.562t90.533-12.787 75.7 50.637 22.505 88.488-41.942 81.327-85.419 32.735z" />
<glyph unicode="&#xe07c;" glyph-name="connection-bold" data-tags="connection-bold" d="M725.291 678.681l-60.356-60.356 213.802-212.779-213.802-213.802 60.356-60.356 273.135 274.158zM359.065 618.326l-60.356 60.356-273.135-273.135 273.135-274.158 60.356 60.356-213.802 213.802zM277.227 405.546q0-26.597 18.925-45.522t45.522-18.925 45.011 18.925 18.414 45.522-18.414 45.011-45.011 18.414-45.522-18.414-18.925-45.011zM448.064 405.546q0-26.597 18.925-45.522t45.011-18.925 45.011 18.925 18.925 45.522-18.925 45.011-45.011 18.414-45.011-18.414-18.925-45.011zM618.901 405.546q0-26.597 18.414-45.522t45.011-18.925 45.522 18.925 18.925 45.522-18.925 45.011-45.522 18.414-45.011-18.414-18.414-45.011z" />
<glyph unicode="&#xe07d;" glyph-name="connection-error-bold" data-tags="connection-error-bold" d="M725.291 152.871l-60.356 60.356 213.802 213.802-213.802 212.779 60.356 60.356 273.135-273.135zM298.709 152.871l-273.135 274.158 273.135 273.135 60.356-60.356-213.802-212.779 213.802-213.802zM469.546 746.198h84.907v-426.581h-84.907v426.581zM448.064 213.227q0-26.597 18.925-45.011t45.011-18.414 45.011 18.414 18.925 45.011-18.925 45.522-45.011 18.925-45.011-18.925-18.925-45.522z" />
<glyph unicode="&#xe07e;" glyph-name="database-bold" data-tags="database-bold" d="M512.511 576.384q107.413 0 199.481 19.437 83.884 18.414 134.010 48.080t50.126 60.356q0 48.080-50.126 86.953t-137.079 60.356q-88.999 23.528-196.923 23.528t-196.923-23.528q-86.953-21.483-137.079-60.356t-50.126-86.953q0-30.689 50.126-60.356t134.010-48.080q92.068-19.437 199.481-19.437h1.023zM127.872 285.858v-51.149q0-48.080 50.126-86.953t137.079-61.379q88.999-22.505 196.923-22.505t196.923 22.505q86.953 22.505 137.079 61.379t50.126 86.953v51.149q-53.195-45.011-162.653-69.562-103.321-24.551-221.475-24.551t-221.475 24.551q-109.459 24.551-162.653 69.562zM512.511 405.546q107.413 0 199.481 19.437 83.884 18.414 134.010 48.080t50.126 60.356v93.091q-53.195-43.988-162.653-69.562-103.321-23.528-221.475-23.528t-221.475 23.528q-109.459 25.574-162.653 69.562v-93.091q0-30.689 50.126-60.356t134.010-48.080q92.068-19.437 199.481-19.437h1.023zM512.511 362.581q-118.665 0-221.986 23.528-109.459 25.574-162.653 69.562v-93.091q0-30.689 50.126-60.356t134.010-48.080q92.068-19.437 199.992-19.437t199.992 19.437q83.884 18.414 134.010 48.080t50.126 60.356v93.091q-53.195-43.988-162.653-69.562-103.321-23.528-221.986-23.528h1.023z" />
<glyph unicode="&#xe07f;" glyph-name="database-connected-bold" data-tags="database-connected-bold" d="M554.454 191.744q98.206 5.115 175.952 28.132t121.734 60.356 43.988 82.35v51.149q-53.195-45.011-162.653-69.562-103.321-24.551-221.475-24.551t-221.475 24.551q-109.459 24.551-162.653 69.562v-51.149q0-45.011 43.988-81.838t121.734-60.356 175.952-28.643v-84.907h-255.744v-85.93h596.396v85.93h-255.744v84.907zM84.907 63.872q0-17.391 12.787-30.178t30.178-12.787 30.178 12.787 12.787 30.178-12.787 30.178-30.178 12.787-30.178-12.787-12.787-30.178zM853.163 63.872q0-17.391 12.787-30.178t30.178-12.787 30.178 12.787 12.787 30.178-12.787 30.178-30.178 12.787-30.178-12.787-12.787-30.178zM512.511 362.581q107.413 0 199.481 19.437 83.884 18.414 134.010 48.080t50.126 60.356v94.114q-53.195-45.011-162.653-69.562-103.321-24.551-221.475-24.551t-221.475 24.551q-109.459 24.551-162.653 69.562v-94.114q0-30.689 50.126-60.356t134.010-48.080q92.068-19.437 199.481-19.437h1.023zM512.511 533.419q107.413 0 199.481 19.437 83.884 18.414 134.010 48.080t50.126 60.356q0 48.080-50.126 86.953t-137.079 61.379q-88.999 22.505-196.923 22.505t-196.923-22.505q-86.953-22.505-137.079-61.379t-50.126-86.953q0-30.689 50.126-60.356t134.010-48.080q92.068-19.437 199.481-19.437h1.023z" />
<glyph unicode="&#xe080;" glyph-name="desktop-bold" data-tags="desktop-bold" d="M84.907 256.192q0-26.597 18.925-45.522t45.522-18.925h231.193q-13.299-50.126-36.827-97.183l-15.345-30.689h367.249l-15.345 30.689q-23.528 47.057-36.827 97.183h231.193q26.597 0 45.522 18.925t18.925 45.522v63.425h-854.186v-63.425zM939.093 725.738q0 26.597-18.925 45.011t-45.522 18.414h-725.291q-26.597 0-45.522-18.414t-18.925-45.011v-363.157h854.186v363.157z" />
<glyph unicode="&#xe081;" glyph-name="disconnected-bold" data-tags="disconnected-bold" d="M853.163 576.384q-40.919 0-73.654-23.528t-46.034-62.402h-93.091v-84.907h93.091q15.345-46.034 58.31-69.562t90.533-12.787 75.7 50.637 22.505 88.488-41.942 81.327-85.419 32.735zM452.156 490.454h-161.63q-15.345 43.988-55.752 68.028t-86.442 15.856-76.212-43.988-30.178-82.35 30.178-82.35 76.212-43.988 86.442 15.856 55.752 68.028h75.7l-41.942-42.965 59.333-60.356 231.193 231.193-60.356 60.356z" />
<glyph unicode="&#xe082;" glyph-name="display-monitor-bold" data-tags="display-monitor-bold" d="M213.802 661.291h596.396v-341.674h-596.396v341.674zM874.645 789.163h-725.291q-26.597 0-45.522-18.414t-18.925-45.011v-469.546q0-26.597 18.925-45.522t45.522-18.925h231.193q-13.299-50.126-36.827-97.183l-15.345-30.689h367.249l-15.345 30.689q-23.528 47.057-36.827 97.183h231.193q26.597 0 45.522 18.925t18.925 45.522v469.546q0 26.597-18.925 45.011t-45.522 18.414zM853.163 277.674h-682.326v426.581h682.326v-426.581z" />
<glyph unicode="&#xe083;" glyph-name="ethernet-bold" data-tags="ethernet-bold" d="M896.128 277.674v212.779h-341.674v170.837h85.93v255.744h-256.767v-255.744h85.93v-170.837h-341.674v-212.779h-84.907v-256.767h255.744v256.767h-84.907v127.872h255.744v-127.872h-85.93v-256.767h256.767v256.767h-85.93v127.872h255.744v-127.872h-84.907v-256.767h255.744v256.767h-84.907z" />
<glyph unicode="&#xe084;" glyph-name="hard-drive-bold" data-tags="hard-drive-bold" d="M149.355 362.581h682.326q31.712 0 57.287-16.368l-72.631 474.661q-4.092 23.528-21.994 38.873t-41.431 15.345h-523.764q-24.551 0-42.454-15.345t-20.971-38.873l-73.654-474.661q26.597 16.368 57.287 16.368zM892.036 277.674q-6.138 18.414-23.017 30.178t-37.339 11.764h-682.326q-26.597 0-45.011-18.414t-19.437-45.011v-127.872q0-26.597 18.925-45.522t45.522-18.925h682.326q26.597 0 45.522 18.925t18.925 45.522v127.872q0 11.253-4.092 21.483zM213.802 128.32q-26.597 0-45.522 18.414t-18.925 45.011 18.925 45.522 45.011 18.925 45.011-18.925 18.925-45.522-18.925-45.011-44.5-18.414zM640.384 149.802q-18.414 0-30.689 12.276t-12.276 30.178 12.276 30.178 30.178 12.276 30.178-12.276 12.276-30.178-12.276-30.178-29.666-12.276zM768.256 149.802q-18.414 0-30.689 12.276t-12.276 30.178 12.276 30.178 30.178 12.276 30.178-12.276 12.276-30.178-12.276-30.178-29.666-12.276z" />
<glyph unicode="&#xe085;" glyph-name="headset-bold" data-tags="headset-bold" d="M829.634 610.142q-8.184 74.677-50.126 135.033t-106.901 95.137-139.636 34.781h-41.942q-74.677 0-139.636-34.781t-106.901-95.137-50.126-135.033q-30.689-12.276-48.591-38.873t-17.902-59.333v-170.837q0-21.483 8.184-40.919t23.017-34.27 34.781-23.017 40.408-8.184h64.448v383.616h-17.391q10.23 49.103 40.408 87.976t74.677 60.867 94.625 21.994h41.942q50.126 0 94.625-21.994t74.677-60.867 40.408-87.976h-17.391v-383.616h21.483q0-34.781-17.391-64.448t-46.545-46.545-63.936-16.879h-55.241q-14.322 24.551-40.919 35.804t-54.729 3.58-45.522-30.689-17.391-51.66 17.391-51.66 45.522-30.689 54.729 3.58 40.919 35.804h55.241q57.287 0 106.39 29.155t77.746 77.746 28.643 106.901h-41.942q43.988 0 75.189 31.201t31.201 75.189v170.837q0 32.735-17.902 59.333t-48.591 38.873z" />
<glyph unicode="&#xe086;" glyph-name="keyboard-bold" data-tags="keyboard-bold" d="M981.035 682.773v-426.581q0-26.597-18.414-45.522t-45.011-18.925h-768.256q-26.597 0-45.522 18.925t-18.925 45.522v426.581q0 26.597 18.925 45.011t45.522 18.414h768.256q26.597 0 45.011-18.414t18.414-45.011zM255.744 618.326h-41.942v-41.942h41.942v41.942zM341.674 618.326h-42.965v-41.942h42.965v41.942zM426.581 618.326h-42.965v-41.942h42.965v41.942zM383.616 533.419h-41.942v-42.965h41.942v42.965zM383.616 448.511h-41.942v-42.965h41.942v42.965zM469.546 533.419h-42.965v-42.965h42.965v42.965zM469.546 448.511h-42.965v-42.965h42.965v42.965zM554.454 533.419h-41.942v-42.965h41.942v42.965zM554.454 448.511h-41.942v-42.965h41.942v42.965zM640.384 533.419h-42.965v-42.965h42.965v42.965zM640.384 448.511h-42.965v-42.965h42.965v42.965zM725.291 533.419h-42.965v-42.965h42.965v42.965zM725.291 448.511h-42.965v-42.965h42.965v42.965zM512.511 618.326h-42.965v-41.942h42.965v41.942zM597.419 618.326h-42.965v-41.942h42.965v41.942zM682.326 618.326h-41.942v-41.942h41.942v41.942zM768.256 618.326h-42.965v-41.942h42.965v41.942zM853.163 618.326h-42.965v-41.942h42.965v41.942zM298.709 533.419h-84.907v-42.965h84.907v42.965zM298.709 448.511h-84.907v-42.965h84.907v42.965zM298.709 362.581h-84.907v-42.965h84.907v42.965zM853.163 533.419h-84.907v-42.965h84.907v42.965zM853.163 448.511h-84.907v-42.965h84.907v42.965zM853.163 362.581h-84.907v-42.965h84.907v42.965zM725.291 362.581h-383.616v-42.965h383.616v42.965z" />
<glyph unicode="&#xe087;" glyph-name="laptop-bold" data-tags="laptop-bold" d="M575.936 191.744h-127.872q-20.46 0-36.827 11.764t-23.528 31.201h-344.743v-64.448q0-26.597 18.414-45.011t45.011-18.414h811.221q26.597 0 45.011 18.414t18.414 45.011v64.448h-344.743q-7.161-19.437-23.528-31.201t-36.827-11.764zM213.802 661.291h596.396v-255.744h-596.396v255.744zM874.645 789.163h-725.291q-26.597 0-45.522-18.414t-18.925-45.011v-448.064h341.674v-21.483q0-9.207 6.138-15.345t15.345-6.138h127.872q9.207 0 15.345 6.138t6.138 15.345v21.483h341.674v448.064q0 26.597-18.925 45.011t-45.522 18.414zM853.163 362.581h-682.326v341.674h682.326v-341.674z" />
<glyph unicode="&#xe088;" glyph-name="mobile-phone-bold" data-tags="mobile-phone-bold" d="M768.256 810.645q0 26.597-18.925 45.522t-45.522 18.925h-383.616q-26.597 0-45.522-18.925t-18.925-45.522v-106.39h512.511v106.39zM554.454 746.198h-84.907v42.965h84.907v-42.965zM255.744 85.355q0-26.597 18.925-45.522t45.522-18.925h383.616q26.597 0 45.522 18.925t18.925 45.522v106.39h-512.511v-106.39zM512.511 170.262q12.276 0 23.017-7.161t15.856-18.925 2.557-24.551-11.764-21.994-21.994-11.764-24.551 2.557-18.925 15.856-7.161 24.040q0 17.391 12.276 29.666t30.689 12.276zM255.744 661.291h512.511v-426.581h-512.511v426.581z" />
<glyph unicode="&#xe089;" glyph-name="modem-bold" data-tags="modem-bold" d="M127.872 106.837q-17.391 0-30.178-12.787t-12.787-30.178 12.787-30.178 30.178-12.787 30.178 12.787 12.787 30.178-12.787 30.178-30.178 12.787zM896.128 106.837q-17.391 0-30.178-12.787t-12.787-30.178 12.787-30.178 30.178-12.787 30.178 12.787 12.787 30.178-12.787 30.178-30.178 12.787zM874.645 789.163h-725.291q-26.597 0-45.522-18.414t-18.925-45.011v-128.895q0-25.574 18.925-44.5t45.522-18.925h725.291q26.597 0 45.522 18.925t18.925 44.5v128.895q0 26.597-18.925 45.011t-45.522 18.414zM213.802 596.843q-26.597 0-45.522 18.925t-18.925 45.522 18.925 45.522 45.011 18.925 45.011-18.925 18.925-45.522-18.925-45.522-44.5-18.925zM682.326 618.326q-17.391 0-29.666 12.787t-12.276 30.178 12.276 30.178 30.178 12.787 30.178-12.787 12.276-30.178-12.276-30.178-30.689-12.787zM810.198 618.326q-17.391 0-29.666 12.787t-12.276 30.178 12.276 30.178 30.178 12.787 30.178-12.787 12.276-30.178-12.276-30.178-30.689-12.787zM874.645 490.454h-725.291q-26.597 0-45.522-18.414t-18.925-45.011v-127.872q0-26.597 18.925-45.522t45.522-18.925h320.192v-127.872h-255.744v-85.93h596.396v85.93h-255.744v127.872h320.192q26.597 0 45.522 18.925t18.925 45.522v127.872q0 26.597-18.925 45.011t-45.522 18.414zM213.802 299.157q-26.597 0-45.522 18.414t-18.925 45.011 18.925 45.522 45.011 18.925 45.011-18.925 18.925-45.522-18.925-45.011-44.5-18.414zM682.326 319.616q-17.391 0-29.666 12.787t-12.276 30.178 12.276 30.178 30.178 12.787 30.178-12.787 12.276-30.178-12.276-30.178-30.689-12.787zM810.198 319.616q-17.391 0-29.666 12.787t-12.276 30.178 12.276 30.178 30.178 12.787 30.178-12.787 12.276-30.178-12.276-30.178-30.689-12.787z" />
<glyph unicode="&#xe08a;" glyph-name="mouse-bold" data-tags="mouse-bold" d="M213.802 309.387q-1.023-74.677 34.27-139.636t97.183-104.344 136.567-44.5h9.207q74.677 0 138.613 37.339t101.275 101.275 37.339 139.636v234.262h-554.454v-224.032zM469.546 875.093q-71.608-6.138-130.43-44.5t-92.579-100.252-32.735-133.499v-20.46h255.744v298.709zM768.256 576.384v20.46q0 71.608-33.758 133.499t-92.579 100.252-130.43 44.5v-298.709h256.767z" />
<glyph unicode="&#xe08b;" glyph-name="network-3-bold" data-tags="network-3-bold" d="M939.093 661.291v255.744h-256.767v-84.907h-212.779v-341.674h-170.837v85.93h-255.744v-256.767h255.744v85.93h170.837v-341.674h212.779v-84.907h256.767v255.744h-256.767v-84.907h-127.872v255.744h127.872v-85.93h256.767v256.767h-256.767v-85.93h-127.872v255.744h127.872v-84.907h256.767z" />
<glyph unicode="&#xe08c;" glyph-name="network-bold" data-tags="network-bold" d="M768.256 362.581q-43.988 0-81.838-20.971t-61.379-56.775l-249.606 112.527q17.391 50.126 0 100.252l249.606 113.55q22.505-34.781 58.31-55.241t76.723-22.505 78.769 15.345 63.425 50.126 33.247 73.143-4.092 80.304-40.408 69.562-67.516 43.477-80.304 7.672-74.677-30.178-52.172-60.356-18.925-78.258v-11.253l-266.997-121.734q-32.735 31.712-76.723 42.454t-86.953-1.534-75.189-45.011-43.477-76.212 0-86.953 43.477-76.212 75.189-44.5 86.953-1.023 76.723 42.454l266.997-121.734v-11.253q0-46.034 23.017-85.419t61.89-62.402 85.419-23.017 85.93 23.017 62.402 62.402 23.017 85.93-23.017 85.419-62.402 61.89-85.419 23.017zM768.256 789.163q25.574 0 47.057-14.322t31.712-38.362 5.115-49.103-23.528-43.477-43.988-23.528-49.614 4.603-38.362 31.201-14.322 48.080q0 34.781 25.063 59.844t60.867 25.063zM213.802 362.581q-35.804 0-60.867 25.063t-25.063 60.356 25.063 60.356 60.356 25.063 60.356-25.063 25.063-60.356-25.063-60.356-59.844-25.063zM768.256 106.837q-35.804 0-60.867 25.063t-25.063 60.356 25.063 60.356 60.356 25.063 60.356-25.063 25.063-60.356-25.063-60.356-59.844-25.063z" />
<glyph unicode="&#xe08d;" glyph-name="phone-bold" data-tags="phone-bold" d="M700.739 410.661l-77.746-77.746q-4.092-4.092-10.23-5.626t-12.276 0.511q-72.631 27.62-126.849 82.35t-81.838 127.361q-2.046 5.115-0.511 11.253t5.626 10.23l77.746 77.746-147.309 246.537-165.722-100.252q-35.804-21.483-47.568-61.89t7.672-77.235q97.183-189.251 247.049-339.117t339.117-247.049q22.505-11.253 48.080-11.253 27.62 0 52.172 13.81t39.896 37.339l99.229 165.722z" />
<glyph unicode="&#xe08e;" glyph-name="plug-1-bold" data-tags="plug-1-bold" d="M853.163 661.291h-170.837v213.802h-84.907v-213.802h-170.837v213.802h-84.907v-213.802h-170.837v-84.907h84.907v-277.227q0-21.483 8.184-41.431t23.017-34.781 34.781-23.017 41.431-8.184h20.46v-21.483q3.069-28.643 24.551-47.057t50.126-16.368h11.253v-127.872h84.907v127.872h11.253q28.643-2.046 50.126 16.368t24.551 47.057v21.483h20.46q45.011 0 76.212 31.201t31.201 76.212v277.227h84.907v84.907z" />
<glyph unicode="&#xe08f;" glyph-name="plug-2-bold" data-tags="plug-2-bold" d="M853.163 661.291h-170.837v213.802h-84.907v-213.802h-42.965v170.837h-84.907v-170.837h-42.965v213.802h-84.907v-213.802h-170.837v-84.907h84.907v-277.227q0-21.483 8.184-41.431t23.017-34.781 34.781-23.017 41.431-8.184h20.46v-21.483q3.069-28.643 24.551-47.057t50.126-16.368h11.253v-127.872h84.907v127.872h11.253q28.643-2.046 50.126 16.368t24.551 47.057v21.483h20.46q45.011 0 76.212 31.201t31.201 76.212v277.227h84.907v84.907z" />
<glyph unicode="&#xe090;" glyph-name="power-bold" data-tags="power-bold" d="M512.511 20.907q-85.93 0-164.188 32.735t-138.102 92.579-92.579 138.613-32.224 163.165 32.735 162.653 92.579 138.613l59.333-59.333q-48.080-49.103-73.654-111.504t-26.086-129.918 26.086-130.941 74.166-110.993 109.97-73.654 130.941-26.086 130.941 26.086 110.482 73.654 74.166 110.993 26.086 130.941-26.086 129.918-74.166 111.504l60.356 59.333q60.356-60.356 92.579-138.102t32.224-162.653-32.735-163.676-92.579-138.613-137.59-92.068-162.653-33.247zM469.546 875.093h84.907v-384.639h-84.907v384.639z" />
<glyph unicode="&#xe091;" glyph-name="power-bolt-bold" data-tags="power-bolt-bold" d="M737.566 576.384h-183.113v375.433l-268.020-589.235h183.113v-375.433z" />
<glyph unicode="&#xe092;" glyph-name="power-none-bold" data-tags="power-none-bold" d="M947.277 822.921l-60.356 60.356-306.893-306.893h-25.574v375.433l-268.020-589.235h79.792l-289.502-289.502 60.356-60.356 332.468 332.468v-358.042l268.020 589.235h-37.85z" />
<glyph unicode="&#xe093;" glyph-name="power-off-bold" data-tags="power-off-bold" d="M512.511 20.907q-116.619 0-215.848 58.31-96.16 57.287-153.447 153.447-58.31 99.229-58.31 215.337t58.31 215.337q57.287 96.16 153.447 153.447 99.229 58.31 215.337 58.31t215.337-58.31q96.16-57.287 153.447-153.447 58.31-99.229 58.31-215.337t-58.31-215.337q-57.287-96.16-153.447-153.447-99.229-58.31-214.825-58.31zM512.511 789.163q-93.091 0-172.883-46.034-76.723-46.034-122.757-122.757-46.034-79.792-46.034-172.372t46.034-172.372q46.034-76.723 122.757-122.757 79.792-46.034 172.372-46.034t172.372 46.034q76.723 46.034 122.757 122.757 46.034 79.792 46.034 171.86 0 68.539-26.086 131.453t-73.654 110.482-110.482 73.654-131.453 26.086h1.023z" />
<glyph unicode="&#xe094;" glyph-name="power-on-bold" data-tags="power-on-bold" d="M469.546 875.093h84.907v-854.186h-84.907v854.186z" />
<glyph unicode="&#xe095;" glyph-name="refresh-bold" data-tags="refresh-bold" d="M260.859 518.074l-47.057-46.034q6.138 87.976 58.821 158.561t136.056 100.763 169.303 10.741 147.309-82.861l60.356 60.356q-53.195 53.195-121.734 82.861t-143.217 31.712-145.263-25.063-125.315-77.746-86.442-118.665-35.804-142.705l-48.080 48.080-59.333-60.356 150.378-150.378 150.378 150.378zM1003.54 438.282l-150.378 150.378-150.378-150.378 60.356-60.356 47.057 46.034q-6.138-87.976-58.821-158.561t-136.056-100.763-169.303-10.741-147.309 82.861l-58.31-60.356q53.195-53.195 121.734-81.838t142.705-30.689 144.24 25.063 124.803 77.746 86.442 117.642 35.804 141.682l48.080-48.080z" />
<glyph unicode="&#xe096;" glyph-name="reload-bold" data-tags="reload-bold" d="M554.454 875.093q-107.413 0-202.549-51.149-92.068-50.126-150.378-137.079-60.356-88.999-71.608-196.412h-2.046v-4.092l-55.241 56.264-60.356-61.379 158.561-157.538 158.561 158.561-61.379 60.356-52.172-52.172q10.23 77.746 52.172 142.705t107.924 105.878 143.728 49.103 150.889-18.414 127.361-81.327 79.792-128.895 16.368-150.889-50.637-142.194-107.924-107.413-143.217-50.126-149.866 17.391-128.384 80.815l-61.379-60.356q67.516-67.516 156.515-99.74t182.601-24.040 176.464 55.752 136.567 124.803 70.074 169.814-8.184 185.159-85.419 164.188-145.774 112.016-181.067 40.408z" />
<glyph unicode="&#xe097;" glyph-name="router-bold" data-tags="router-bold" d="M773.371 528.304q27.62 27.62 34.781 65.471t-7.672 73.654-47.057 57.798-71.097 21.994-71.097-21.994-47.057-57.798-7.161-73.654 35.293-65.471l60.356 60.356q-12.276 12.276-12.276 30.178t12.276 30.178 29.666 12.276 30.178-12.276 12.787-30.178-12.276-30.178zM561.614 497.614q-23.528 24.551-36.827 55.752t-13.299 65.471 13.299 65.471 36.827 54.729q33.758 31.712 77.235 42.965t87.465 0 76.723-42.965q24.551-23.528 37.339-54.729t12.787-65.471-12.787-65.471-37.339-55.752l60.356-60.356q55.241 55.241 70.585 131.453t-14.322 147.82-94.625 115.085-142.705 43.477-142.194-43.477-94.114-115.085-14.322-147.82 69.562-131.453zM831.68 405.546h-106.39v127.872h-84.907v-127.872h-448.064q-21.483 0-40.919-8.184t-34.781-23.017-23.528-34.781-8.184-40.408v-85.93q0-37.85 24.040-67.516t61.89-36.827v-45.011h84.907v42.965h512.511v-42.965h84.907v45.011q37.85 7.161 61.89 36.827t24.040 67.516v85.93q0 20.46-8.184 40.408t-23.528 34.781-34.781 23.017-40.919 8.184zM469.546 234.709h-255.744v42.965h255.744v-42.965zM640.384 213.227q-18.414 0-30.689 12.787t-12.276 30.178 12.276 30.178 30.178 12.787 30.178-12.787 12.276-30.178-12.276-30.178-29.666-12.787zM768.256 213.227q-18.414 0-30.689 12.787t-12.276 30.178 12.276 30.178 30.178 12.787 30.178-12.787 12.276-30.178-12.276-30.178-29.666-12.787z" />
<glyph unicode="&#xe098;" glyph-name="rss-bold" data-tags="rss-bold" d="M42.965 63.872q0-34.781 25.063-59.844t60.356-25.063 60.356 25.063 25.063 60.356-25.063 60.356-60.356 25.063-60.356-25.063-25.063-60.867zM575.936 63.872h-84.907q0 98.206-50.126 183.113-48.080 81.838-129.918 129.918-84.907 50.126-183.113 50.126v84.907q121.734 0 226.078-61.379 101.275-59.333 160.607-160.607 61.379-104.344 61.379-226.078zM917.61 63.872h-85.93q0 143.217-55.241 274.158-53.195 125.826-150.889 223.52t-223.52 150.889q-130.941 55.241-274.158 55.241v85.93q160.607 0 306.893-62.402 142.194-60.356 251.141-169.303t169.303-251.141q62.402-146.286 62.402-306.893z" />
<glyph unicode="&#xe099;" glyph-name="sd-card-bold" data-tags="sd-card-bold" d="M628.108 875.093h-457.271v-384.639h42.965v-41.942h-42.965v-427.604h639.361v671.073zM383.616 533.419h-41.942v255.744h41.942v-255.744zM469.546 533.419h-42.965v255.744h42.965v-255.744zM554.454 533.419h-41.942v255.744h41.942v-255.744zM640.384 533.419h-42.965v170.837h42.965v-170.837z" />
<glyph unicode="&#xe09a;" glyph-name="server-bold" data-tags="server-bold" d="M874.645 875.093h-725.291q-26.597 0-45.522-18.925t-18.925-45.522v-127.872q0-26.597 18.925-45.522t45.522-18.925h725.291q26.597 0 45.522 18.925t18.925 45.522v127.872q0 26.597-18.925 45.522t-45.522 18.925zM213.802 682.773q-26.597 0-45.522 18.925t-18.925 45.011 18.925 45.011 45.011 18.925 45.011-18.925 18.925-45.011-18.925-45.011-44.5-18.925zM682.326 704.256q-12.276 0-23.017 7.161t-15.856 18.925-2.557 24.551 11.764 21.994 21.994 11.764 24.551-2.557 18.925-15.856 7.161-24.040q0-17.391-12.276-29.666t-30.689-12.276zM810.198 704.256q-12.276 0-23.017 7.161t-15.856 18.925-2.557 24.551 11.764 21.994 21.994 11.764 24.551-2.557 18.925-15.856 7.161-24.040q0-17.391-12.276-29.666t-30.689-12.276zM874.645 576.384h-725.291q-26.597 0-45.522-18.925t-18.925-45.522v-127.872q0-26.597 18.925-45.522t45.522-18.925h725.291q26.597 0 45.522 18.925t18.925 45.522v127.872q0 26.597-18.925 45.522t-45.522 18.925zM213.802 384.064q-26.597 0-45.522 18.925t-18.925 45.011 18.925 45.011 45.011 18.925 45.011-18.925 18.925-45.011-18.925-45.011-44.5-18.925zM682.326 405.546q-17.391 0-29.666 12.276t-12.276 30.178 12.276 30.178 30.178 12.276 30.178-12.276 12.276-30.178-12.276-30.178-30.689-12.276zM810.198 405.546q-17.391 0-29.666 12.276t-12.276 30.178 12.276 30.178 30.178 12.276 30.178-12.276 12.276-30.178-12.276-30.178-30.689-12.276zM874.645 277.674h-725.291q-26.597 0-45.522-18.925t-18.925-45.522v-127.872q0-26.597 18.925-45.522t45.522-18.925h725.291q26.597 0 45.522 18.925t18.925 45.522v127.872q0 26.597-18.925 45.522t-45.522 18.925zM213.802 85.355q-26.597 0-45.522 18.925t-18.925 45.011 18.925 45.011 45.011 18.925 45.011-18.925 18.925-45.011-18.925-45.011-44.5-18.925zM682.326 106.837q-17.391 0-29.666 12.276t-12.276 30.178 12.276 30.178 30.178 12.276 30.178-12.276 12.276-30.178-12.276-30.178-30.689-12.276zM810.198 106.837q-17.391 0-29.666 12.276t-12.276 30.178 12.276 30.178 30.178 12.276 30.178-12.276 12.276-30.178-12.276-30.178-30.689-12.276z" />
<glyph unicode="&#xe09b;" glyph-name="symbol-bluetooth-bold" data-tags="symbol-bluetooth-bold" d="M742.681 639.808l-273.135 274.158v-341.674l-127.872 127.872-60.356-60.356 170.837-170.837-170.837-169.814 60.356-60.356 127.872 127.872v-341.674l273.135 274.158-170.837 169.814zM554.454 708.348l68.539-68.539-68.539-67.516v136.056zM622.993 299.157l-68.539-68.539v136.056z" />
<glyph unicode="&#xe09c;" glyph-name="symbol-code-bold" data-tags="symbol-code-bold" d="M310.985 43.413l-300.755 401.007 300.755 401.007 68.539-51.149-261.882-349.858 261.882-349.858zM713.015 43.413l-68.539 51.149 261.882 349.858-261.882 349.858 68.539 51.149 300.755-401.007zM397.938 68.987l144.24 766.21 83.884-15.345-144.24-767.233z" />
<glyph unicode="&#xe09d;" glyph-name="symbol-usb-bold" data-tags="symbol-usb-bold" d="M757.003 682.773h-149.355v-149.355h32.735v-37.85l-85.93-41.942v297.686l42.965-41.942 60.356 58.31-145.263 146.286-146.286-146.286 60.356-59.333 42.965 41.942v-383.616l-85.93 42.965v50.126q25.574 14.322 36.827 41.431t3.58 54.729-30.689 45.522-52.172 17.902-52.172-17.902-30.178-45.522 3.58-54.729 36.316-41.431v-102.298l170.837-84.907v-92.068q-25.574-15.345-36.316-41.942t-3.58-54.729 30.178-45.522 52.172-17.391 52.172 17.391 30.178 45.522-3.58 54.729-36.316 41.942v176.975l170.837 84.907v91.045h31.712v149.355z" />
</font>
</defs>
</svg>
