<?xml version="1.0" encoding="utf-8"?>
<!-- Generator: Adobe Illustrator 21.1.0, SVG Export Plug-In . SVG Version: 6.00 Build 0)  -->
<svg version="1.1" xmlns="http://www.w3.org/2000/svg" xmlns:xlink="http://www.w3.org/1999/xlink" x="0px" y="0px"
	 viewBox="0 0 55 22" style="enable-background:new 0 0 55 22;" xml:space="preserve">
<style type="text/css">
	.st0{fill-rule:evenodd;clip-rule:evenodd;fill:none;}
	.st1{fill:none;stroke:#FFFFFF;stroke-width:2;stroke-miterlimit:10;}
	.st2{display:none;fill:none;}
	.st3{fill:none;}
	.st4{fill:#FFFFFF;}
	.st5{opacity:5.000000e-02;fill:#00FFFF;}
	.st6{opacity:5.000000e-02;fill:#FF00FF;}
	.st7{fill:#FF00FF;fill-opacity:5.000000e-02;}
	.st8{fill:#FF00FF;fill-opacity:0.1;}
	.st9{fill:#004593;}
	.st10{fill:url(#SVGID_1_);}
	.st11{fill:#315DAF;}
	.st12{clip-path:url(#SVGID_3_);}
	.st13{clip-path:url(#SVGID_5_);fill:#FFFFFF;}
	.st14{clip-path:url(#SVGID_7_);}
	.st15{clip-path:url(#SVGID_9_);fill:#FFFFFF;}
	.st16{fill:#FF00AA;}
	.st17{fill:url(#SVGID_10_);}
	.st18{clip-path:url(#SVGID_12_);}
	.st19{clip-path:url(#SVGID_14_);fill:#FFFFFF;}
	.st20{fill:#808080;}
	.st21{fill:none;stroke:#FF00FF;stroke-miterlimit:10;}
</style>
<symbol  id="Chev_-_White" viewBox="-8 -8 16 16">
	<g>
		<rect x="-8" y="-8" class="st0" width="16" height="16"/>
	</g>
	<polyline class="st1" points="3,-6 -3,0 3.1,6.1 	"/>
	<rect x="-8" y="-8" class="st2" width="16" height="16"/>
</symbol>
<symbol  id="Icon_-_Hamburger_White" viewBox="0 -24 24 24">
	<rect y="-24" class="st3" width="24" height="24"/>
	<g>
		<path class="st4" d="M24-5.5C24-5.8,23.8-6,23.5-6h-23C0.2-6,0-5.8,0-5.5v1C0-4.2,0.2-4,0.5-4h23C23.8-4,24-4.2,24-4.5V-5.5z"/>
		<path class="st4" d="M24-12.5c0-0.3-0.2-0.5-0.5-0.5h-23C0.2-13,0-12.8,0-12.5v1C0-11.2,0.2-11,0.5-11h23c0.3,0,0.5-0.2,0.5-0.5
			V-12.5z"/>
		<path class="st4" d="M24-19.5c0-0.3-0.2-0.5-0.5-0.5h-23C0.2-20,0-19.8,0-19.5v1C0-18.2,0.2-18,0.5-18h23c0.3,0,0.5-0.2,0.5-0.5
			V-19.5z"/>
	</g>
	<rect y="-24" class="st2" width="24" height="24"/>
</symbol>
<g id="Grid">
</g>
<g id="Layer_1">
	<g id="BD_1_color_WR_1_">
		<g>
			<defs>
				<rect id="SVGID_6_" width="55" height="22"/>
			</defs>
			<clipPath id="SVGID_1_">
				<use xlink:href="#SVGID_6_"  style="overflow:visible;"/>
			</clipPath>
			<g style="clip-path:url(#SVGID_1_);">
				<defs>
					<rect id="SVGID_8_" width="55" height="22"/>
				</defs>
				<clipPath id="SVGID_3_">
					<use xlink:href="#SVGID_8_"  style="overflow:visible;"/>
				</clipPath>
				<path style="clip-path:url(#SVGID_3_);fill:#FFFFFF;" d="M34.3,18.9h-5.9c-0.7,0-1.3-0.6-1.3-1.3V4.4c0-0.7,0.5-1.3,1.3-1.3h5.5
					c3,0,4.8,1.8,4.8,4c0,2.3-1.4,3.1-1.9,3.3c0.8,0.2,2.8,1.1,2.8,3.9C39.6,16.8,37.7,18.9,34.3,18.9 M33.8,5.4h-4.1v4h4.1
					c1.6,0,2.4-0.9,2.4-2C36.2,6.3,35.5,5.4,33.8,5.4 M34.4,11.7h-4.7v4.8h4.7c1.9,0,2.7-1.2,2.7-2.4C37.1,12.9,36.3,11.7,34.4,11.7
					"/>
				<path style="clip-path:url(#SVGID_3_);fill:#FFFFFF;" d="M46.7,18.9h-3.9c-0.7,0-1.3-0.5-1.3-1.3V4.4c0-0.7,0.6-1.3,1.3-1.3h3.9
					C52,3.1,55,6.6,55,11C55,15.4,52,18.9,46.7,18.9 M46.5,5.4H44v11.2h2.5c3.8,0,5.9-2.2,5.9-5.6C52.4,7.6,50.3,5.4,46.5,5.4"/>
				<path style="clip-path:url(#SVGID_3_);fill:#FFFFFF;" d="M11,0C4.9,0,0,4.9,0,11c0,6.1,4.9,11,11,11c6.1,0,11-4.9,11-11
					C22,4.9,17.1,0,11,0 M20.6,6.6c0,0-6.1,1.5-6.1,1.5c0,0,0,0-0.1,0c0,0-0.1,0-0.1-0.1c0,0,0,0,0-0.1c0,0,2.4-5.9,2.4-5.9
					C18.4,3.2,19.8,4.8,20.6,6.6 M16.7,2.1c0,0-4.2,4.4-4.3,4.6c0,0,0,0-0.1,0c0,0-0.1,0-0.1-0.1C12.2,6.4,11,0.4,11,0.4
					C13.1,0.4,15.1,1,16.7,2.1 M11,0.4c0,0-1.1,5.9-1.2,6.2c0,0,0,0.1-0.1,0.1c0,0,0,0-0.1,0C9.5,6.5,5.3,2.1,5.3,2.1
					C6.9,1,8.9,0.4,11,0.4 M5.2,2.1c0,0,2.4,5.8,2.4,5.9c0,0,0,0,0,0.1c0,0,0,0.1-0.1,0.1c0,0,0,0-0.1,0c0,0-6.1-1.5-6.1-1.5
					C2.2,4.8,3.6,3.2,5.2,2.1 M0.4,11c0-1.5,0.3-3,0.9-4.3c0,0,5.1,3.6,5.2,3.6c0,0,0,0,0,0.1c0,0,0,0.1-0.1,0.1c0,0-6,2-6,2
					C0.5,12,0.4,11.5,0.4,11 M11,21.6c-5.3,0-9.7-3.9-10.5-9l3.9,0.5c0.1,0,0.1,0,0.1,0.1c0.8,2.3,2.8,4,5.2,4.5
					c-0.9-0.5-1.6-1.4-1.6-2.5c0-1.5,1.2-2.8,2.8-2.8c1.5,0,2.8,1.3,2.8,2.8c0,1.1-0.6,2.1-1.6,2.5c2.4-0.4,4.4-2.2,5.2-4.5
					c0,0,0-0.1,0.1-0.1l3.9-0.5C20.7,17.7,16.3,21.6,11,21.6 M15.5,10.4C15.5,10.4,15.4,10.4,15.5,10.4c-0.1-0.1-0.1-0.1,0-0.1
					c0,0,5.2-3.6,5.2-3.6c0.6,1.3,0.9,2.8,0.9,4.3c0,0.5,0,1-0.1,1.5C21.5,12.5,15.5,10.5,15.5,10.4"/>
			</g>
		</g>
	</g>
</g>
</svg>
