<svg xmlns="http://www.w3.org/2000/svg" viewBox="0 0 192 96"><defs><style>.cls-1{fill:#fff;}.cls-2{fill:#004593;}.cls-3{fill:#f27707;}</style></defs><title>BD Logo Sizes</title><g id="Layer_2" data-name="Layer 2"><rect class="cls-1" width="192" height="96"/><path class="cls-2" d="M110.79,65.25H98a2.74,2.74,0,0,1-2.75-2.8v-29A2.7,2.7,0,0,1,98,30.75h12c6.58,0,10.51,3.83,10.51,8.8s-3.07,6.82-4.14,7.21c1.66.42,6.16,2.32,6.16,8.61,0,5.39-4.35,9.88-11.71,9.88m-1.07-29.42h-8.93v8.7h8.93c3.54,0,5.21-2,5.21-4.35S113.37,35.83,109.73,35.83ZM111,49.55h-10.2V60.12H111c4.09,0,6-2.64,6-5.28S115.1,49.55,111,49.55Z"/><path class="cls-2" d="M137.87,65.25h-8.62a2.76,2.76,0,0,1-2.84-2.8v-29a2.76,2.76,0,0,1,2.84-2.75h8.62C149.55,30.75,156,38.47,156,48S149.48,65.25,137.87,65.25Zm-.36-29.42h-5.42V60.17h5.42c8.26,0,12.87-4.82,12.87-12.17S145.85,35.83,137.5,35.83Z"/><path class="cls-1" d="M84,48A24,24,0,1,1,60,24,24,24,0,0,1,84,48"/><path id="_Compound_Path_" data-name="&lt;Compound Path&gt;" class="cls-3" d="M49.79,46.74,36.23,51.37A24.2,24.2,0,0,1,36,48a23.91,23.91,0,0,1,2.11-9.85l11.74,8.28c.07.05.1.1.1.15s-.07.13-.15.16M59.91,24a23.89,23.89,0,0,0-12.84,3.77L56.93,38.2c.07.07.11.11.17.11s.13,0,.15-.15ZM52.36,41.31a.31.31,0,0,0,0-.12l-5.4-13.32A24.1,24.1,0,0,0,38.18,38L52.1,41.43l.12,0A.13.13,0,0,0,52.36,41.31Zm17.85,5.43,13.56,4.63A24.2,24.2,0,0,0,84,48a23.92,23.92,0,0,0-2.11-9.85L70.15,46.43c-.07.05-.1.1-.1.15S70.12,46.71,70.21,46.74Zm-7.45-8.58c0,.11.09.15.15.15s.11,0,.17-.11l9.85-10.43A23.89,23.89,0,0,0,60.09,24Zm5,3.28.12,0L81.82,38a24.1,24.1,0,0,0-8.74-10.11l-5.4,13.32a.31.31,0,0,0,0,.12A.13.13,0,0,0,67.77,41.44Z"/><path id="_Path_" data-name="&lt;Path&gt;" class="cls-3" d="M60,72A24,24,0,0,0,83.73,51.61l-8.94,1.25a.25.25,0,0,0-.23.19A15.37,15.37,0,0,1,62.77,63.16a6.34,6.34,0,1,0-5.55,0A15.37,15.37,0,0,1,45.44,53a.25.25,0,0,0-.23-.19l-8.95-1.25A24,24,0,0,0,60,72"/></g></svg>